<?xml version="1.0" encoding="UTF-8" standalone="no"?>
<!DOCTYPE svg PUBLIC "-//W3C//DTD SVG 1.1//EN"
 "http://www.w3.org/Graphics/SVG/1.1/DTD/svg11.dtd">
<!-- Generated by graphviz version 2.43.0 (0)
 -->
<!-- Title: G Pages: 1 -->
<svg width="810pt" height="1026pt"
 viewBox="0.00 0.00 810.00 1026.00" xmlns="http://www.w3.org/2000/svg" xmlns:xlink="http://www.w3.org/1999/xlink">
<g id="graph0" class="graph" transform="scale(1 1) rotate(0) translate(4 1022)">
<title>G</title>
<polygon fill="white" stroke="transparent" points="-4,4 -4,-1022 806,-1022 806,4 -4,4"/>
<!-- Белград -->
<g id="node1" class="node">
<title>Белград</title>
<polygon fill="#ffbbff" stroke="black" points="253.5,-524 182.5,-524 182.5,-501 253.5,-501 253.5,-524"/>
<text text-anchor="middle" x="218" y="-508.8" font-family="Droid Sans" font-size="14.00">Белград</text>
</g>
<!-- Ресник -->
<g id="node7" class="node">
<title>Ресник</title>
<polygon fill="#ffbbff" stroke="black" points="300,-464 246,-464 246,-445 300,-445 300,-464"/>
<text text-anchor="middle" x="273" y="-452" font-family="Droid Sans" font-size="10.00">Ресник</text>
</g>
<!-- Белград&#45;&#45;Ресник -->
<g id="edge5" class="edge">
<title>Белград&#45;&#45;Ресник</title>
<path fill="none" stroke="#7f7f7f" stroke-width="3" d="M228.35,-500.97C238.8,-490.32 254.76,-474.07 264.5,-464.15"/>
</g>
<!-- Рушань -->
<g id="node8" class="node">
<title>Рушань</title>
<polygon fill="#ffbbff" stroke="black" points="383,-390 329,-390 329,-371 383,-371 383,-390"/>
<text text-anchor="middle" x="356" y="-378" font-family="Droid Sans" font-size="10.00">Рушань</text>
</g>
<!-- Белград&#45;&#45;Рушань -->
<g id="edge6" class="edge">
<title>Белград&#45;&#45;Рушань</title>
<path fill="none" stroke="#7f7f7f" stroke-width="3" d="M253.66,-506.93C299.77,-500.2 376.17,-486.01 393,-464 411.21,-440.18 381.65,-405.98 365.47,-390.15"/>
</g>
<!-- Сланцы -->
<g id="node9" class="node">
<title>Сланцы</title>
<polygon fill="#ffbbff" stroke="black" points="152,-464 98,-464 98,-445 152,-445 152,-464"/>
<text text-anchor="middle" x="125" y="-452" font-family="Droid Sans" font-size="10.00">Сланцы</text>
</g>
<!-- Белград&#45;&#45;Сланцы -->
<g id="edge7" class="edge">
<title>Белград&#45;&#45;Сланцы</title>
<path fill="none" stroke="#7f7f7f" stroke-width="3" d="M199.3,-500.81C190.13,-495.52 178.94,-489 169,-483 158.66,-476.77 147.09,-469.52 138.41,-464.04"/>
</g>
<!-- Сурчин -->
<g id="node10" class="node">
<title>Сурчин</title>
<polygon fill="#ffbbff" stroke="black" points="80,-464 26,-464 26,-445 80,-445 80,-464"/>
<text text-anchor="middle" x="53" y="-452" font-family="Droid Sans" font-size="10.00">Сурчин</text>
</g>
<!-- Белград&#45;&#45;Сурчин -->
<g id="edge8" class="edge">
<title>Белград&#45;&#45;Сурчин</title>
<path fill="none" stroke="#7f7f7f" stroke-width="3" d="M186.96,-500.97C155.5,-490.29 107.42,-473.97 78.23,-464.06"/>
</g>
<!-- Пиносава -->
<g id="node15" class="node">
<title>Пиносава</title>
<polygon fill="#ffbbff" stroke="black" points="474,-390 410,-390 410,-371 474,-371 474,-390"/>
<text text-anchor="middle" x="442" y="-378" font-family="Droid Sans" font-size="10.00">Пиносава</text>
</g>
<!-- Белград&#45;&#45;Пиносава -->
<g id="edge22" class="edge">
<title>Белград&#45;&#45;Пиносава</title>
<path fill="none" stroke="#7f7f7f" stroke-width="3" d="M253.65,-508.65C286.49,-505.21 336.17,-497.9 377,-483 392.9,-477.2 398.98,-476.84 410,-464 429.21,-441.62 437.6,-406.4 440.6,-390.19"/>
</g>
<!-- Железник -->
<g id="node21" class="node">
<title>Железник</title>
<polygon fill="#ffbbff" stroke="black" points="384,-464 318,-464 318,-445 384,-445 384,-464"/>
<text text-anchor="middle" x="351" y="-452" font-family="Droid Sans" font-size="10.00">Железник</text>
</g>
<!-- Белград&#45;&#45;Железник -->
<g id="edge24" class="edge">
<title>Белград&#45;&#45;Железник</title>
<path fill="none" stroke="#7f7f7f" stroke-width="3" d="M243.02,-500.97C268.3,-490.32 306.9,-474.07 330.46,-464.15"/>
</g>
<!-- Яково -->
<g id="node27" class="node">
<title>Яково</title>
<polygon fill="#ffbbff" stroke="black" points="135,-390 81,-390 81,-371 135,-371 135,-390"/>
<text text-anchor="middle" x="108" y="-378" font-family="Droid Sans" font-size="10.00">Яково</text>
</g>
<!-- Белград&#45;&#45;Яково -->
<g id="edge36" class="edge">
<title>Белград&#45;&#45;Яково</title>
<path fill="none" stroke="#7f7f7f" stroke-width="3" d="M209,-500.86C187.76,-475.76 134.83,-413.21 115.35,-390.19"/>
</g>
<!-- Умка -->
<g id="node31" class="node">
<title>Умка</title>
<polygon fill="#ffbbff" stroke="black" points="249,-427 195,-427 195,-408 249,-408 249,-427"/>
<text text-anchor="middle" x="222" y="-415" font-family="Droid Sans" font-size="10.00">Умка</text>
</g>
<!-- Белград&#45;&#45;Умка -->
<g id="edge38" class="edge">
<title>Белград&#45;&#45;Умка</title>
<path fill="none" stroke="#7f7f7f" stroke-width="3" d="M218.46,-500.83C219.26,-482.22 220.89,-444.19 221.63,-427.13"/>
</g>
<!-- Авала -->
<g id="node2" class="node">
<title>Авала</title>
<polygon fill="#ffbbff" stroke="black" points="468.86,-334 415.14,-334 396,-296 488,-296 468.86,-334"/>
<text text-anchor="middle" x="442" y="-312.5" font-family="Droid Sans" font-size="10.00">Авала</text>
</g>
<!-- Стара Пазова -->
<g id="node3" class="node">
<title>Стара Пазова</title>
<polygon fill="#ffbbff" stroke="black" points="198.5,-758 117.5,-758 117.5,-739 198.5,-739 198.5,-758"/>
<text text-anchor="middle" x="158" y="-746" font-family="Droid Sans" font-size="10.00">Стара Пазова</text>
</g>
<!-- Нова Пазова -->
<g id="node4" class="node">
<title>Нова Пазова</title>
<polygon fill="#ffbbff" stroke="black" points="150.5,-692 71.5,-692 71.5,-673 150.5,-673 150.5,-692"/>
<text text-anchor="middle" x="111" y="-680" font-family="Droid Sans" font-size="10.00">Нова Пазова</text>
</g>
<!-- Стара Пазова&#45;&#45;Нова Пазова -->
<g id="edge1" class="edge">
<title>Стара Пазова&#45;&#45;Нова Пазова</title>
<path fill="none" stroke="#7f7f7f" stroke-width="3" d="M151.66,-738.87C142.74,-726.72 126.57,-704.7 117.54,-692.41"/>
</g>
<!-- Стари Бановцы -->
<g id="node25" class="node">
<title>Стари Бановцы</title>
<polygon fill="#ffbbff" stroke="black" points="259,-692 169,-692 169,-673 259,-673 259,-692"/>
<text text-anchor="middle" x="214" y="-680" font-family="Droid Sans" font-size="10.00">Стари Бановцы</text>
</g>
<!-- Стара Пазова&#45;&#45;Стари Бановцы -->
<g id="edge75" class="edge">
<title>Стара Пазова&#45;&#45;Стари Бановцы</title>
<path fill="none" stroke="orange" stroke-width="1.5" d="M165.55,-738.87C176.18,-726.72 195.45,-704.7 206.21,-692.41"/>
<text text-anchor="middle" x="196.5" y="-713" font-family="Droid Sans" font-size="10.00" fill="orange">10</text>
</g>
<!-- Батайница -->
<g id="node5" class="node">
<title>Батайница</title>
<polygon fill="#ffbbff" stroke="black" points="221,-636 153,-636 153,-617 221,-617 221,-636"/>
<text text-anchor="middle" x="187" y="-624" font-family="Droid Sans" font-size="10.00">Батайница</text>
</g>
<!-- Нова Пазова&#45;&#45;Батайница -->
<g id="edge2" class="edge">
<title>Нова Пазова&#45;&#45;Батайница</title>
<path fill="none" stroke="#7f7f7f" stroke-width="3" d="M123.21,-672.82C137.31,-662.81 160.38,-646.42 174.57,-636.33"/>
</g>
<!-- Угриновцы -->
<g id="node26" class="node">
<title>Угриновцы</title>
<polygon fill="#ffbbff" stroke="black" points="104.5,-580 33.5,-580 33.5,-561 104.5,-561 104.5,-580"/>
<text text-anchor="middle" x="69" y="-568" font-family="Droid Sans" font-size="10.00">Угриновцы</text>
</g>
<!-- Нова Пазова&#45;&#45;Угриновцы -->
<g id="edge30" class="edge">
<title>Нова Пазова&#45;&#45;Угриновцы</title>
<path fill="none" stroke="#7f7f7f" stroke-width="3" d="M107.7,-672.87C99.85,-652.31 80.12,-600.61 72.28,-580.09"/>
</g>
<!-- Земун -->
<g id="node6" class="node">
<title>Земун</title>
<polygon fill="#ffbbff" stroke="black" points="296,-580 242,-580 242,-561 296,-561 296,-580"/>
<text text-anchor="middle" x="269" y="-568" font-family="Droid Sans" font-size="10.00">Земун</text>
</g>
<!-- Батайница&#45;&#45;Земун -->
<g id="edge3" class="edge">
<title>Батайница&#45;&#45;Земун</title>
<path fill="none" stroke="#7f7f7f" stroke-width="3" d="M200.17,-616.82C215.48,-606.75 240.57,-590.22 255.86,-580.15"/>
</g>
<!-- Батайница&#45;&#45;Угриновцы -->
<g id="edge31" class="edge">
<title>Батайница&#45;&#45;Угриновцы</title>
<path fill="none" stroke="#7f7f7f" stroke-width="3" d="M168.3,-616.94C146.21,-606.83 109.67,-590.11 87.61,-580.02"/>
</g>
<!-- Земун&#45;&#45;Белград -->
<g id="edge4" class="edge">
<title>Земун&#45;&#45;Белград</title>
<path fill="none" stroke="#7f7f7f" stroke-width="3" d="M261.03,-560.75C252.07,-550.91 237.5,-534.91 227.83,-524.3"/>
</g>
<!-- Ресник&#45;&#45;Рушань -->
<g id="edge12" class="edge">
<title>Ресник&#45;&#45;Рушань</title>
<path fill="none" stroke="#7f7f7f" stroke-width="3" d="M282.85,-444.96C298.82,-431.1 330.2,-403.88 346.17,-390.03"/>
</g>
<!-- Ресник&#45;&#45;Пиносава -->
<g id="edge15" class="edge">
<title>Ресник&#45;&#45;Пиносава</title>
<path fill="none" stroke="#7f7f7f" stroke-width="3" d="M293.05,-444.96C325.58,-431.1 389.47,-403.88 421.98,-390.03"/>
</g>
<!-- Колония -->
<g id="node16" class="node">
<title>Колония</title>
<polygon fill="#ffbbff" stroke="black" points="302.5,-390 243.5,-390 243.5,-371 302.5,-371 302.5,-390"/>
<text text-anchor="middle" x="273" y="-378" font-family="Droid Sans" font-size="10.00">Колония</text>
</g>
<!-- Ресник&#45;&#45;Колония -->
<g id="edge16" class="edge">
<title>Ресник&#45;&#45;Колония</title>
<path fill="none" stroke="#7f7f7f" stroke-width="3" d="M273,-444.96C273,-431.1 273,-403.88 273,-390.03"/>
</g>
<!-- Липовица -->
<g id="node13" class="node">
<title>Липовица</title>
<polygon fill="#ffbbff" stroke="black" points="365,-259 299,-259 299,-240 365,-240 365,-259"/>
<text text-anchor="middle" x="332" y="-247" font-family="Droid Sans" font-size="10.00">Липовица</text>
</g>
<!-- Рушань&#45;&#45;Липовица -->
<g id="edge13" class="edge">
<title>Рушань&#45;&#45;Липовица</title>
<path fill="none" stroke="#7f7f7f" stroke-width="3" d="M354.67,-370.7C352.34,-355.44 347.25,-323.13 342,-296 339.51,-283.14 336.17,-268.33 334.05,-259.2"/>
</g>
<!-- Сурчин&#45;&#45;Яково -->
<g id="edge33" class="edge">
<title>Сурчин&#45;&#45;Яково</title>
<path fill="none" stroke="#7f7f7f" stroke-width="3" d="M59.53,-444.96C70.11,-431.1 90.9,-403.88 101.48,-390.03"/>
</g>
<!-- Вишница -->
<g id="node11" class="node">
<title>Вишница</title>
<polygon fill="#ffbbff" stroke="black" points="185.5,-580 122.5,-580 122.5,-561 185.5,-561 185.5,-580"/>
<text text-anchor="middle" x="154" y="-568" font-family="Droid Sans" font-size="10.00">Вишница</text>
</g>
<!-- Вишница&#45;&#45;Белград -->
<g id="edge11" class="edge">
<title>Вишница&#45;&#45;Белград</title>
<path fill="none" stroke="#7f7f7f" stroke-width="3" d="M163.72,-560.99C174.91,-551.2 193.32,-535.1 205.55,-524.4"/>
</g>
<!-- Велико село -->
<g id="node12" class="node">
<title>Велико село</title>
<polygon fill="#ffbbff" stroke="black" points="163,-522 85,-522 85,-503 163,-503 163,-522"/>
<text text-anchor="middle" x="124" y="-510" font-family="Droid Sans" font-size="10.00">Велико село</text>
</g>
<!-- Вишница&#45;&#45;Велико село -->
<g id="edge9" class="edge">
<title>Вишница&#45;&#45;Велико село</title>
<path fill="none" stroke="#7f7f7f" stroke-width="3" d="M149.31,-560.75C143.64,-550.17 134.17,-532.48 128.56,-522.01"/>
</g>
<!-- Велико село&#45;&#45;Сланцы -->
<g id="edge10" class="edge">
<title>Велико село&#45;&#45;Сланцы</title>
<path fill="none" stroke="#7f7f7f" stroke-width="3" d="M124.16,-502.75C124.35,-492.17 124.66,-474.48 124.85,-464.01"/>
</g>
<!-- Вреоцы -->
<g id="node14" class="node">
<title>Вреоцы</title>
<polygon fill="#ffbbff" stroke="black" points="359.5,-203 304.5,-203 304.5,-184 359.5,-184 359.5,-203"/>
<text text-anchor="middle" x="332" y="-191" font-family="Droid Sans" font-size="10.00">Вреоцы</text>
</g>
<!-- Липовица&#45;&#45;Вреоцы -->
<g id="edge14" class="edge">
<title>Липовица&#45;&#45;Вреоцы</title>
<path fill="none" stroke="#7f7f7f" stroke-width="3" d="M332,-239.58C332,-229.52 332,-213.25 332,-203.25"/>
</g>
<!-- Лазаревац -->
<g id="node54" class="node">
<title>Лазаревац</title>
<path fill="white" stroke="plum" d="M310.33,-119.5C310.33,-119.5 353.67,-119.5 353.67,-119.5 356.33,-119.5 359,-122.17 359,-124.83 359,-124.83 359,-130.17 359,-130.17 359,-132.83 356.33,-135.5 353.67,-135.5 353.67,-135.5 310.33,-135.5 310.33,-135.5 307.67,-135.5 305,-132.83 305,-130.17 305,-130.17 305,-124.83 305,-124.83 305,-122.17 307.67,-119.5 310.33,-119.5"/>
<text text-anchor="middle" x="332" y="-125.9" font-family="Droid Sans" font-size="7.00">Лазаревац</text>
</g>
<!-- Вреоцы&#45;&#45;Лазаревац -->
<g id="edge76" class="edge">
<title>Вреоцы&#45;&#45;Лазаревац</title>
<path fill="none" stroke="orange" stroke-width="1.5" d="M332,-183.87C332,-171.18 332,-147.7 332,-135.81"/>
<text text-anchor="middle" x="335.5" y="-158" font-family="Droid Sans" font-size="10.00" fill="orange">8</text>
</g>
<!-- Пиносава&#45;&#45;Авала -->
<g id="edge23" class="edge">
<title>Пиносава&#45;&#45;Авала</title>
<path fill="none" stroke="#7f7f7f" stroke-width="3" d="M442,-370.94C442,-361.52 442,-346.14 442,-334.04"/>
</g>
<!-- Бела река -->
<g id="node17" class="node">
<title>Бела река</title>
<polygon fill="#ffbbff" stroke="black" points="333.5,-324.5 268.5,-324.5 268.5,-305.5 333.5,-305.5 333.5,-324.5"/>
<text text-anchor="middle" x="301" y="-312.5" font-family="Droid Sans" font-size="10.00">Бела река</text>
</g>
<!-- Колония&#45;&#45;Бела река -->
<g id="edge17" class="edge">
<title>Колония&#45;&#45;Бела река</title>
<path fill="none" stroke="#7f7f7f" stroke-width="3" d="M276.78,-370.94C282.09,-358.88 291.73,-337.03 297.1,-324.84"/>
</g>
<!-- Степашиновац -->
<g id="node18" class="node">
<title>Степашиновац</title>
<polygon fill="#ffbbff" stroke="black" points="250.5,-324.5 161.5,-324.5 161.5,-305.5 250.5,-305.5 250.5,-324.5"/>
<text text-anchor="middle" x="206" y="-312.5" font-family="Droid Sans" font-size="10.00">Степашиновац</text>
</g>
<!-- Колония&#45;&#45;Степашиновац -->
<g id="edge19" class="edge">
<title>Колония&#45;&#45;Степашиновац</title>
<path fill="none" stroke="#7f7f7f" stroke-width="3" d="M263.96,-370.94C251.25,-358.88 228.19,-337.03 215.32,-324.84"/>
</g>
<!-- Бела река&#45;&#45;Липовица -->
<g id="edge18" class="edge">
<title>Бела река&#45;&#45;Липовица</title>
<path fill="none" stroke="#7f7f7f" stroke-width="3" d="M305.18,-305.44C311.06,-293.38 321.73,-271.53 327.69,-259.34"/>
</g>
<!-- Шупля Стена -->
<g id="node19" class="node">
<title>Шупля Стена</title>
<polygon fill="#ffbbff" stroke="black" points="118,-259 38,-259 38,-240 118,-240 118,-259"/>
<text text-anchor="middle" x="78" y="-247" font-family="Droid Sans" font-size="10.00">Шупля Стена</text>
</g>
<!-- Степашиновац&#45;&#45;Шупля Стена -->
<g id="edge20" class="edge">
<title>Степашиновац&#45;&#45;Шупля Стена</title>
<path fill="none" stroke="#7f7f7f" stroke-width="3" d="M188.74,-305.44C164.31,-293.32 119.9,-271.29 95.4,-259.13"/>
</g>
<!-- IKEA -->
<g id="node20" class="node">
<title>IKEA</title>
<polygon fill="#ffbbff" stroke="black" points="54,-324.5 0,-324.5 0,-305.5 54,-305.5 54,-324.5"/>
<text text-anchor="middle" x="27" y="-312.5" font-family="Droid Sans" font-size="10.00">IKEA</text>
</g>
<!-- IKEA&#45;&#45;Шупля Стена -->
<g id="edge21" class="edge">
<title>IKEA&#45;&#45;Шупля Стена</title>
<path fill="none" stroke="#7f7f7f" stroke-width="3" d="M33.88,-305.44C43.56,-293.38 61.11,-271.53 70.9,-259.34"/>
</g>
<!-- Железник&#45;&#45;Рушань -->
<g id="edge25" class="edge">
<title>Железник&#45;&#45;Рушань</title>
<path fill="none" stroke="#7f7f7f" stroke-width="3" d="M351.59,-444.96C352.56,-431.1 354.45,-403.88 355.41,-390.03"/>
</g>
<!-- Сремска Митровица -->
<g id="node22" class="node">
<title>Сремска Митровица</title>
<polygon fill="#ffbbff" stroke="black" points="633,-890 517,-890 517,-871 633,-871 633,-890"/>
<text text-anchor="middle" x="575" y="-878" font-family="Droid Sans" font-size="10.00">Сремска Митровица</text>
</g>
<!-- Инджия -->
<g id="node23" class="node">
<title>Инджия</title>
<polygon fill="#ffbbff" stroke="black" points="323,-824 267,-824 267,-805 323,-805 323,-824"/>
<text text-anchor="middle" x="295" y="-812" font-family="Droid Sans" font-size="10.00">Инджия</text>
</g>
<!-- Сремска Митровица&#45;&#45;Инджия -->
<g id="edge26" class="edge">
<title>Сремска Митровица&#45;&#45;Инджия</title>
<path fill="none" stroke="#7f7f7f" stroke-width="3" d="M537.53,-870.94C480.75,-857.96 374.18,-833.6 323.36,-821.98"/>
</g>
<!-- Лачарак -->
<g id="node35" class="node">
<title>Лачарак</title>
<polygon fill="#ffbbff" stroke="black" points="603,-824 547,-824 547,-805 603,-805 603,-824"/>
<text text-anchor="middle" x="575" y="-812" font-family="Droid Sans" font-size="10.00">Лачарак</text>
</g>
<!-- Сремска Митровица&#45;&#45;Лачарак -->
<g id="edge46" class="edge">
<title>Сремска Митровица&#45;&#45;Лачарак</title>
<path fill="none" stroke="#7f7f7f" stroke-width="3" d="M575,-870.87C575,-858.72 575,-836.7 575,-824.41"/>
</g>
<!-- Мачванска Митровица -->
<g id="node49" class="node">
<title>Мачванска Митровица</title>
<polygon fill="#ffbbff" stroke="black" points="778,-464 650,-464 650,-445 778,-445 778,-464"/>
<text text-anchor="middle" x="714" y="-452" font-family="Droid Sans" font-size="10.00">Мачванска Митровица</text>
</g>
<!-- Сремска Митровица&#45;&#45;Мачванска Митровица -->
<g id="edge66" class="edge">
<title>Сремска Митровица&#45;&#45;Мачванска Митровица</title>
<path fill="none" stroke="#7f7f7f" stroke-width="3" d="M600.11,-870.89C622.91,-861.29 653,-843.35 653,-815.5 653,-815.5 653,-815.5 653,-511.5 653,-488.93 675.94,-472.98 693.69,-464.02"/>
</g>
<!-- Инджия&#45;&#45;Стара Пазова -->
<g id="edge74" class="edge">
<title>Инджия&#45;&#45;Стара Пазова</title>
<path fill="none" stroke="orange" stroke-width="1.5" d="M276.52,-804.87C250.38,-792.65 202.85,-770.45 176.62,-758.2"/>
<text text-anchor="middle" x="241.5" y="-779" font-family="Droid Sans" font-size="10.00" fill="orange">10</text>
</g>
<!-- Нови Сланкамен -->
<g id="node24" class="node">
<title>Нови Сланкамен</title>
<polygon fill="#ffbbff" stroke="black" points="315,-758 217,-758 217,-739 315,-739 315,-758"/>
<text text-anchor="middle" x="266" y="-746" font-family="Droid Sans" font-size="10.00">Нови Сланкамен</text>
</g>
<!-- Инджия&#45;&#45;Нови Сланкамен -->
<g id="edge27" class="edge">
<title>Инджия&#45;&#45;Нови Сланкамен</title>
<path fill="none" stroke="#7f7f7f" stroke-width="3" d="M292.94,-804.92C290.92,-797.16 287.48,-785.52 283,-776 280.02,-769.67 275.77,-763.05 272.26,-758"/>
</g>
<!-- Нови Сланкамен&#45;&#45;Стари Бановцы -->
<g id="edge28" class="edge">
<title>Нови Сланкамен&#45;&#45;Стари Бановцы</title>
<path fill="none" stroke="#7f7f7f" stroke-width="3" d="M258.99,-738.87C249.12,-726.72 231.22,-704.7 221.24,-692.41"/>
</g>
<!-- Стари Бановцы&#45;&#45;Батайница -->
<g id="edge29" class="edge">
<title>Стари Бановцы&#45;&#45;Батайница</title>
<path fill="none" stroke="#7f7f7f" stroke-width="3" d="M209.54,-672.58C204.51,-662.52 196.37,-646.25 191.38,-636.25"/>
</g>
<!-- Угриновцы&#45;&#45;Сурчин -->
<g id="edge32" class="edge">
<title>Угриновцы&#45;&#45;Сурчин</title>
<path fill="none" stroke="#7f7f7f" stroke-width="3" d="M67.8,-560.93C64.83,-539.8 57.2,-485.4 54.22,-464.17"/>
</g>
<!-- Обреновац -->
<g id="node30" class="node">
<title>Обреновац</title>
<polygon fill="#ffbbff" stroke="black" points="143.5,-324.5 72.5,-324.5 72.5,-305.5 143.5,-305.5 143.5,-324.5"/>
<text text-anchor="middle" x="108" y="-312.5" font-family="Droid Sans" font-size="10.00">Обреновац</text>
</g>
<!-- Яково&#45;&#45;Обреновац -->
<g id="edge37" class="edge">
<title>Яково&#45;&#45;Обреновац</title>
<path fill="none" stroke="#7f7f7f" stroke-width="3" d="M108,-370.94C108,-358.88 108,-337.03 108,-324.84"/>
</g>
<!-- Овча -->
<g id="node28" class="node">
<title>Овча</title>
<polygon fill="#ffbbff" stroke="black" points="336,-692 282,-692 282,-673 336,-673 336,-692"/>
<text text-anchor="middle" x="309" y="-680" font-family="Droid Sans" font-size="10.00">Овча</text>
</g>
<!-- Борча -->
<g id="node29" class="node">
<title>Борча</title>
<polygon fill="#ffbbff" stroke="black" points="294,-636 240,-636 240,-617 294,-617 294,-636"/>
<text text-anchor="middle" x="267" y="-624" font-family="Droid Sans" font-size="10.00">Борча</text>
</g>
<!-- Овча&#45;&#45;Борча -->
<g id="edge34" class="edge">
<title>Овча&#45;&#45;Борча</title>
<path fill="none" stroke="#7f7f7f" stroke-width="3" d="M302.06,-672.58C294.24,-662.52 281.58,-646.25 273.81,-636.25"/>
</g>
<!-- Себеш -->
<g id="node32" class="node">
<title>Себеш</title>
<polygon fill="#ffbbff" stroke="black" points="380,-580 326,-580 326,-561 380,-561 380,-580"/>
<text text-anchor="middle" x="353" y="-568" font-family="Droid Sans" font-size="10.00">Себеш</text>
</g>
<!-- Овча&#45;&#45;Себеш -->
<g id="edge40" class="edge">
<title>Овча&#45;&#45;Себеш</title>
<path fill="none" stroke="#7f7f7f" stroke-width="3" d="M312.45,-672.87C320.68,-652.31 341.35,-600.61 349.56,-580.09"/>
</g>
<!-- Борча&#45;&#45;Белград -->
<g id="edge35" class="edge">
<title>Борча&#45;&#45;Белград</title>
<path fill="none" stroke="#7f7f7f" stroke-width="3" d="M258.73,-616.82C250.94,-608.17 239.52,-594.15 233,-580 224.48,-561.51 220.64,-537.85 219.03,-524.31"/>
</g>
<!-- Борча&#45;&#45;Земун -->
<g id="edge42" class="edge">
<title>Борча&#45;&#45;Земун</title>
<path fill="none" stroke="#7f7f7f" stroke-width="3" d="M267.33,-616.58C267.7,-606.52 268.31,-590.25 268.68,-580.25"/>
</g>
<!-- Борча&#45;&#45;Себеш -->
<g id="edge41" class="edge">
<title>Борча&#45;&#45;Себеш</title>
<path fill="none" stroke="#7f7f7f" stroke-width="3" d="M280.52,-616.77C288.97,-611.34 300.09,-604.22 310,-598 319.65,-591.94 330.59,-585.2 339.02,-580.03"/>
</g>
<!-- Умка&#45;&#45;Обреновац -->
<g id="edge39" class="edge">
<title>Умка&#45;&#45;Обреновац</title>
<path fill="none" stroke="#7f7f7f" stroke-width="3" d="M212.28,-407.93C190.74,-388.94 139.21,-343.51 117.69,-324.55"/>
</g>
<!-- Панчево -->
<g id="node33" class="node">
<title>Панчево</title>
<polygon fill="#ffbbff" stroke="black" points="447.5,-692 388.5,-692 388.5,-673 447.5,-673 447.5,-692"/>
<text text-anchor="middle" x="418" y="-680" font-family="Droid Sans" font-size="10.00">Панчево</text>
</g>
<!-- Панчево&#45;&#45;Себеш -->
<g id="edge43" class="edge">
<title>Панчево&#45;&#45;Себеш</title>
<path fill="none" stroke="#7f7f7f" stroke-width="3" d="M424.4,-672.57C432.87,-659.55 445.58,-634.96 435,-617 423.27,-597.08 399.32,-585.26 380.32,-578.68"/>
</g>
<!-- Дубока бара -->
<g id="node34" class="node">
<title>Дубока бара</title>
<polygon fill="#ffbbff" stroke="black" points="426,-636 350,-636 350,-617 426,-617 426,-636"/>
<text text-anchor="middle" x="388" y="-624" font-family="Droid Sans" font-size="10.00">Дубока бара</text>
</g>
<!-- Панчево&#45;&#45;Дубока бара -->
<g id="edge44" class="edge">
<title>Панчево&#45;&#45;Дубока бара</title>
<path fill="none" stroke="#7f7f7f" stroke-width="3" d="M413.05,-672.58C407.45,-662.52 398.42,-646.25 392.86,-636.25"/>
</g>
<!-- Дубока бара&#45;&#45;Себеш -->
<g id="edge45" class="edge">
<title>Дубока бара&#45;&#45;Себеш</title>
<path fill="none" stroke="#7f7f7f" stroke-width="3" d="M382.22,-616.58C375.7,-606.52 365.15,-590.25 358.67,-580.25"/>
</g>
<!-- Мартинцы -->
<g id="node36" class="node">
<title>Мартинцы</title>
<polygon fill="#ffbbff" stroke="black" points="577,-758 509,-758 509,-739 577,-739 577,-758"/>
<text text-anchor="middle" x="543" y="-746" font-family="Droid Sans" font-size="10.00">Мартинцы</text>
</g>
<!-- Лачарак&#45;&#45;Мартинцы -->
<g id="edge47" class="edge">
<title>Лачарак&#45;&#45;Мартинцы</title>
<path fill="none" stroke="#7f7f7f" stroke-width="3" d="M570.68,-804.87C564.61,-792.72 553.6,-770.7 547.45,-758.41"/>
</g>
<!-- Босут -->
<g id="node38" class="node">
<title>Босут</title>
<polygon fill="#ffbbff" stroke="black" points="577,-636 523,-636 523,-617 577,-617 577,-636"/>
<text text-anchor="middle" x="550" y="-624" font-family="Droid Sans" font-size="10.00">Босут</text>
</g>
<!-- Лачарак&#45;&#45;Босут -->
<g id="edge50" class="edge">
<title>Лачарак&#45;&#45;Босут</title>
<path fill="none" stroke="#7f7f7f" stroke-width="3" d="M577.99,-804.96C585.34,-782.57 602.56,-720.61 586,-673 580.84,-658.16 568.6,-644.51 559.83,-636.11"/>
</g>
<!-- Кузмин -->
<g id="node37" class="node">
<title>Кузмин</title>
<polygon fill="#ffbbff" stroke="black" points="577,-692 523,-692 523,-673 577,-673 577,-692"/>
<text text-anchor="middle" x="550" y="-680" font-family="Droid Sans" font-size="10.00">Кузмин</text>
</g>
<!-- Мартинцы&#45;&#45;Кузмин -->
<g id="edge48" class="edge">
<title>Мартинцы&#45;&#45;Кузмин</title>
<path fill="none" stroke="#7f7f7f" stroke-width="3" d="M543.94,-738.87C545.27,-726.72 547.68,-704.7 549.03,-692.41"/>
</g>
<!-- Мартинцы&#45;&#45;Босут -->
<g id="edge51" class="edge">
<title>Мартинцы&#45;&#45;Босут</title>
<path fill="none" stroke="#7f7f7f" stroke-width="3" d="M535.42,-738.86C524.26,-725.05 505.61,-697.12 514,-673 519.16,-658.16 531.4,-644.51 540.17,-636.11"/>
</g>
<!-- Кузмин&#45;&#45;Босут -->
<g id="edge49" class="edge">
<title>Кузмин&#45;&#45;Босут</title>
<path fill="none" stroke="#7f7f7f" stroke-width="3" d="M550,-672.58C550,-662.52 550,-646.25 550,-636.25"/>
</g>
<!-- Босанска Рача -->
<g id="node39" class="node">
<title>Босанска Рача</title>
<polygon fill="#ffbbff" stroke="black" points="592,-580 508,-580 508,-561 592,-561 592,-580"/>
<text text-anchor="middle" x="550" y="-568" font-family="Droid Sans" font-size="10.00">Босанска Рача</text>
</g>
<!-- Босут&#45;&#45;Босанска Рача -->
<g id="edge52" class="edge">
<title>Босут&#45;&#45;Босанска Рача</title>
<path fill="none" stroke="#7f7f7f" stroke-width="3" d="M550,-616.58C550,-606.52 550,-590.25 550,-580.25"/>
</g>
<!-- Балатун -->
<g id="node40" class="node">
<title>Балатун</title>
<polygon fill="#ffbbff" stroke="black" points="533.5,-464 478.5,-464 478.5,-445 533.5,-445 533.5,-464"/>
<text text-anchor="middle" x="506" y="-452" font-family="Droid Sans" font-size="10.00">Балатун</text>
</g>
<!-- Босанска Рача&#45;&#45;Балатун -->
<g id="edge53" class="edge">
<title>Босанска Рача&#45;&#45;Балатун</title>
<path fill="none" stroke="#7f7f7f" stroke-width="3" d="M544.67,-560.69C539.4,-551.71 531.36,-537.24 526,-524 517.54,-503.1 511,-477.3 507.93,-464.12"/>
</g>
<!-- Велино село -->
<g id="node42" class="node">
<title>Велино село</title>
<polygon fill="#ffbbff" stroke="black" points="613.5,-522 534.5,-522 534.5,-503 613.5,-503 613.5,-522"/>
<text text-anchor="middle" x="574" y="-510" font-family="Droid Sans" font-size="10.00">Велино село</text>
</g>
<!-- Босанска Рача&#45;&#45;Велино село -->
<g id="edge55" class="edge">
<title>Босанска Рача&#45;&#45;Велино село</title>
<path fill="none" stroke="#7f7f7f" stroke-width="3" d="M553.75,-560.75C558.29,-550.17 565.87,-532.48 570.35,-522.01"/>
</g>
<!-- Трняцы -->
<g id="node41" class="node">
<title>Трняцы</title>
<polygon fill="#ffbbff" stroke="black" points="584,-324.5 530,-324.5 530,-305.5 584,-305.5 584,-324.5"/>
<text text-anchor="middle" x="557" y="-312.5" font-family="Droid Sans" font-size="10.00">Трняцы</text>
</g>
<!-- Балатун&#45;&#45;Трняцы -->
<g id="edge54" class="edge">
<title>Балатун&#45;&#45;Трняцы</title>
<path fill="none" stroke="#7f7f7f" stroke-width="3" d="M509.19,-444.9C518.35,-420.21 544.65,-349.29 553.81,-324.6"/>
</g>
<!-- Дворови -->
<g id="node45" class="node">
<title>Дворови</title>
<polygon fill="#ffbbff" stroke="black" points="596,-259 536,-259 536,-240 596,-240 596,-259"/>
<text text-anchor="middle" x="566" y="-247" font-family="Droid Sans" font-size="10.00">Дворови</text>
</g>
<!-- Трняцы&#45;&#45;Дворови -->
<g id="edge61" class="edge">
<title>Трняцы&#45;&#45;Дворови</title>
<path fill="none" stroke="#7f7f7f" stroke-width="3" d="M558.21,-305.44C559.92,-293.38 563.02,-271.53 564.75,-259.34"/>
</g>
<!-- Велино село&#45;&#45;Балатун -->
<g id="edge59" class="edge">
<title>Велино село&#45;&#45;Балатун</title>
<path fill="none" stroke="#7f7f7f" stroke-width="3" d="M563.67,-502.99C550.89,-492.47 529.25,-474.65 516.42,-464.09"/>
</g>
<!-- Бродац Дони -->
<g id="node43" class="node">
<title>Бродац Дони</title>
<polygon fill="#ffbbff" stroke="black" points="632,-464 552,-464 552,-445 632,-445 632,-464"/>
<text text-anchor="middle" x="592" y="-452" font-family="Droid Sans" font-size="10.00">Бродац Дони</text>
</g>
<!-- Велино село&#45;&#45;Бродац Дони -->
<g id="edge56" class="edge">
<title>Велино село&#45;&#45;Бродац Дони</title>
<path fill="none" stroke="#7f7f7f" stroke-width="3" d="M576.81,-502.75C580.21,-492.17 585.9,-474.48 589.27,-464.01"/>
</g>
<!-- Бродац Дони&#45;&#45;Трняцы -->
<g id="edge60" class="edge">
<title>Бродац Дони&#45;&#45;Трняцы</title>
<path fill="none" stroke="#7f7f7f" stroke-width="3" d="M586.85,-444.82C580.07,-432.92 568.37,-410.64 563,-390 557.03,-367.05 556.54,-338.86 556.74,-324.82"/>
</g>
<!-- Бродац Горни -->
<g id="node44" class="node">
<title>Бродац Горни</title>
<polygon fill="#ffbbff" stroke="black" points="655.5,-390 572.5,-390 572.5,-371 655.5,-371 655.5,-390"/>
<text text-anchor="middle" x="614" y="-378" font-family="Droid Sans" font-size="10.00">Бродац Горни</text>
</g>
<!-- Бродац Дони&#45;&#45;Бродац Горни -->
<g id="edge57" class="edge">
<title>Бродац Дони&#45;&#45;Бродац Горни</title>
<path fill="none" stroke="#7f7f7f" stroke-width="3" d="M594.61,-444.96C598.84,-431.1 607.16,-403.88 611.39,-390.03"/>
</g>
<!-- Бродац Горни&#45;&#45;Трняцы -->
<g id="edge58" class="edge">
<title>Бродац Горни&#45;&#45;Трняцы</title>
<path fill="none" stroke="#7f7f7f" stroke-width="3" d="M606.31,-370.94C595.49,-358.88 575.88,-337.03 564.93,-324.84"/>
</g>
<!-- Биелина -->
<g id="node46" class="node">
<title>Биелина</title>
<polygon fill="#ffbbff" stroke="black" points="607.5,-81 548.5,-81 548.5,-62 607.5,-62 607.5,-81"/>
<text text-anchor="middle" x="578" y="-69" font-family="Droid Sans" font-size="10.00">Биелина</text>
</g>
<!-- Дворови&#45;&#45;Биелина -->
<g id="edge62" class="edge">
<title>Дворови&#45;&#45;Биелина</title>
<path fill="none" stroke="#7f7f7f" stroke-width="3" d="M566.61,-239.53C568.67,-209.27 575.36,-111.16 577.4,-81.24"/>
</g>
<!-- Станишичи -->
<g id="node47" class="node">
<title>Станишичи</title>
<polygon fill="#ffbbff" stroke="black" points="668,-203 594,-203 594,-184 668,-184 668,-203"/>
<text text-anchor="middle" x="631" y="-191" font-family="Droid Sans" font-size="10.00">Станишичи</text>
</g>
<!-- Дворови&#45;&#45;Станишичи -->
<g id="edge63" class="edge">
<title>Дворови&#45;&#45;Станишичи</title>
<path fill="none" stroke="#7f7f7f" stroke-width="3" d="M576.44,-239.82C588.5,-229.81 608.23,-213.42 620.37,-203.33"/>
</g>
<!-- Лозница -->
<g id="node58" class="node">
<title>Лозница</title>
<path fill="white" stroke="plum" d="M556.33,-0.5C556.33,-0.5 599.67,-0.5 599.67,-0.5 602.33,-0.5 605,-3.17 605,-5.83 605,-5.83 605,-11.17 605,-11.17 605,-13.83 602.33,-16.5 599.67,-16.5 599.67,-16.5 556.33,-16.5 556.33,-16.5 553.67,-16.5 551,-13.83 551,-11.17 551,-11.17 551,-5.83 551,-5.83 551,-3.17 553.67,-0.5 556.33,-0.5"/>
<text text-anchor="middle" x="578" y="-6.9" font-family="Droid Sans" font-size="7.00">Лозница</text>
</g>
<!-- Биелина&#45;&#45;Лозница -->
<g id="edge81" class="edge">
<title>Биелина&#45;&#45;Лозница</title>
<path fill="none" stroke="orangered" d="M578,-61.76C578,-49.64 578,-27.94 578,-16.7"/>
<text text-anchor="middle" x="583" y="-37.6" font-family="Droid Sans" font-size="8.00" fill="orangered">33</text>
</g>
<!-- Диелови -->
<g id="node48" class="node">
<title>Диелови</title>
<polygon fill="#ffbbff" stroke="black" points="661.5,-137 600.5,-137 600.5,-118 661.5,-118 661.5,-137"/>
<text text-anchor="middle" x="631" y="-125" font-family="Droid Sans" font-size="10.00">Диелови</text>
</g>
<!-- Станишичи&#45;&#45;Диелови -->
<g id="edge64" class="edge">
<title>Станишичи&#45;&#45;Диелови</title>
<path fill="none" stroke="#7f7f7f" stroke-width="3" d="M631,-183.87C631,-171.72 631,-149.7 631,-137.41"/>
</g>
<!-- Диелови&#45;&#45;Биелина -->
<g id="edge65" class="edge">
<title>Диелови&#45;&#45;Биелина</title>
<path fill="none" stroke="#7f7f7f" stroke-width="3" d="M622.25,-117.58C612.37,-107.52 596.4,-91.25 586.59,-81.25"/>
</g>
<!-- Равне -->
<g id="node50" class="node">
<title>Равне</title>
<polygon fill="#ffbbff" stroke="black" points="728,-390 674,-390 674,-371 728,-371 728,-390"/>
<text text-anchor="middle" x="701" y="-378" font-family="Droid Sans" font-size="10.00">Равне</text>
</g>
<!-- Мачванска Митровица&#45;&#45;Равне -->
<g id="edge67" class="edge">
<title>Мачванска Митровица&#45;&#45;Равне</title>
<path fill="none" stroke="#7f7f7f" stroke-width="3" d="M712.46,-444.96C709.96,-431.1 705.04,-403.88 702.54,-390.03"/>
</g>
<!-- Богатич -->
<g id="node51" class="node">
<title>Богатич</title>
<polygon fill="#ffbbff" stroke="black" points="802,-390 746,-390 746,-371 802,-371 802,-390"/>
<text text-anchor="middle" x="774" y="-378" font-family="Droid Sans" font-size="10.00">Богатич</text>
</g>
<!-- Мачванска Митровица&#45;&#45;Богатич -->
<g id="edge68" class="edge">
<title>Мачванска Митровица&#45;&#45;Богатич</title>
<path fill="none" stroke="#7f7f7f" stroke-width="3" d="M721.12,-444.96C732.67,-431.1 755.35,-403.88 766.89,-390.03"/>
</g>
<!-- Бадовинцы -->
<g id="node52" class="node">
<title>Бадовинцы</title>
<polygon fill="#ffbbff" stroke="black" points="737,-324.5 665,-324.5 665,-305.5 737,-305.5 737,-324.5"/>
<text text-anchor="middle" x="701" y="-312.5" font-family="Droid Sans" font-size="10.00">Бадовинцы</text>
</g>
<!-- Равне&#45;&#45;Бадовинцы -->
<g id="edge69" class="edge">
<title>Равне&#45;&#45;Бадовинцы</title>
<path fill="none" stroke="#7f7f7f" stroke-width="3" d="M701,-370.94C701,-358.88 701,-337.03 701,-324.84"/>
</g>
<!-- Богатич&#45;&#45;Бадовинцы -->
<g id="edge70" class="edge">
<title>Богатич&#45;&#45;Бадовинцы</title>
<path fill="none" stroke="#7f7f7f" stroke-width="3" d="M764.15,-370.94C750.3,-358.88 725.18,-337.03 711.16,-324.84"/>
</g>
<!-- Попово Поле -->
<g id="node53" class="node">
<title>Попово Поле</title>
<polygon fill="#ffbbff" stroke="black" points="737,-259 655,-259 655,-240 737,-240 737,-259"/>
<text text-anchor="middle" x="696" y="-247" font-family="Droid Sans" font-size="10.00">Попово Поле</text>
</g>
<!-- Бадовинцы&#45;&#45;Попово Поле -->
<g id="edge71" class="edge">
<title>Бадовинцы&#45;&#45;Попово Поле</title>
<path fill="none" stroke="#7f7f7f" stroke-width="3" d="M700.33,-305.44C699.38,-293.38 697.66,-271.53 696.7,-259.34"/>
</g>
<!-- Попово Поле&#45;&#45;Станишичи -->
<g id="edge72" class="edge">
<title>Попово Поле&#45;&#45;Станишичи</title>
<path fill="none" stroke="#7f7f7f" stroke-width="3" d="M685.56,-239.82C673.5,-229.81 653.77,-213.42 641.63,-203.33"/>
</g>
<!-- Попово Поле&#45;&#45;Диелови -->
<g id="edge73" class="edge">
<title>Попово Поле&#45;&#45;Диелови</title>
<path fill="none" stroke="#7f7f7f" stroke-width="3" d="M694.58,-239.73C692.26,-226.9 686.88,-202.55 677,-184 667.12,-165.44 650.4,-147.34 640.07,-137.09"/>
</g>
<!-- Нови&#45;Сад -->
<g id="node55" class="node">
<title>Нови&#45;Сад</title>
<path fill="white" stroke="plum" d="M244.33,-1001.5C244.33,-1001.5 287.67,-1001.5 287.67,-1001.5 290.33,-1001.5 293,-1004.17 293,-1006.83 293,-1006.83 293,-1012.17 293,-1012.17 293,-1014.83 290.33,-1017.5 287.67,-1017.5 287.67,-1017.5 244.33,-1017.5 244.33,-1017.5 241.67,-1017.5 239,-1014.83 239,-1012.17 239,-1012.17 239,-1006.83 239,-1006.83 239,-1004.17 241.67,-1001.5 244.33,-1001.5"/>
<text text-anchor="middle" x="266" y="-1007.9" font-family="Droid Sans" font-size="7.00">Нови&#45;Сад</text>
</g>
<!-- Петроварадин -->
<g id="node56" class="node">
<title>Петроварадин</title>
<path fill="white" stroke="plum" d="M238.33,-937.5C238.33,-937.5 293.67,-937.5 293.67,-937.5 296.33,-937.5 299,-940.17 299,-942.83 299,-942.83 299,-948.17 299,-948.17 299,-950.83 296.33,-953.5 293.67,-953.5 293.67,-953.5 238.33,-953.5 238.33,-953.5 235.67,-953.5 233,-950.83 233,-948.17 233,-948.17 233,-942.83 233,-942.83 233,-940.17 235.67,-937.5 238.33,-937.5"/>
<text text-anchor="middle" x="266" y="-943.9" font-family="Droid Sans" font-size="7.00">Петроварадин</text>
</g>
<!-- Нови&#45;Сад&#45;&#45;Петроварадин -->
<g id="edge77" class="edge">
<title>Нови&#45;Сад&#45;&#45;Петроварадин</title>
<path fill="none" stroke="orange" stroke-width="1.5" d="M266,-1001.39C266,-989.43 266,-965.43 266,-953.53"/>
<text text-anchor="middle" x="269.5" y="-975" font-family="Droid Sans" font-size="10.00" fill="orange">4</text>
</g>
<!-- Чортановцы -->
<g id="node57" class="node">
<title>Чортановцы</title>
<path fill="white" stroke="plum" d="M241.33,-872.5C241.33,-872.5 290.67,-872.5 290.67,-872.5 293.33,-872.5 296,-875.17 296,-877.83 296,-877.83 296,-883.17 296,-883.17 296,-885.83 293.33,-888.5 290.67,-888.5 290.67,-888.5 241.33,-888.5 241.33,-888.5 238.67,-888.5 236,-885.83 236,-883.17 236,-883.17 236,-877.83 236,-877.83 236,-875.17 238.67,-872.5 241.33,-872.5"/>
<text text-anchor="middle" x="266" y="-878.9" font-family="Droid Sans" font-size="7.00">Чортановцы</text>
</g>
<!-- Петроварадин&#45;&#45;Чортановцы -->
<g id="edge78" class="edge">
<title>Петроварадин&#45;&#45;Чортановцы</title>
<path fill="none" stroke="orange" stroke-width="1.5" d="M266,-937.27C266,-925.12 266,-900.74 266,-888.64"/>
<text text-anchor="middle" x="272.5" y="-911" font-family="Droid Sans" font-size="10.00" fill="orange">12</text>
</g>
<!-- Чортановцы&#45;&#45;Инджия -->
<g id="edge79" class="edge">
<title>Чортановцы&#45;&#45;Инджия</title>
<path fill="none" stroke="orange" stroke-width="1.5" d="M269.33,-872.16C274.68,-860.34 285.2,-837.13 290.97,-824.39"/>
<text text-anchor="middle" x="289.5" y="-845" font-family="Droid Sans" font-size="10.00" fill="orange">18</text>
</g>
<!-- Чортановцы&#45;&#45;Нови Сланкамен -->
<g id="edge80" class="edge">
<title>Чортановцы&#45;&#45;Нови Сланкамен</title>
<path fill="none" stroke="orangered" d="M262.94,-872.49C258.59,-862.13 250.85,-842.01 248,-824 244.67,-802.91 243.57,-796.36 250,-776 252.01,-769.65 255.82,-763.23 259.23,-758.3"/>
<text text-anchor="middle" x="253" y="-812.6" font-family="Droid Sans" font-size="8.00" fill="orangered">25</text>
</g>
</g>
</svg>
