<?xml version="1.0" encoding="UTF-8" standalone="no"?>
<!DOCTYPE svg PUBLIC "-//W3C//DTD SVG 1.1//EN"
 "http://www.w3.org/Graphics/SVG/1.1/DTD/svg11.dtd">
<!-- Generated by graphviz version 2.43.0 (0)
 -->
<!-- Title: G Pages: 1 -->
<svg width="774pt" height="970pt"
 viewBox="0.00 0.00 773.50 970.00" xmlns="http://www.w3.org/2000/svg" xmlns:xlink="http://www.w3.org/1999/xlink">
<g id="graph0" class="graph" transform="scale(1 1) rotate(0) translate(4 966)">
<title>G</title>
<polygon fill="white" stroke="transparent" points="-4,4 -4,-966 769.5,-966 769.5,4 -4,4"/>
<!-- Белград -->
<g id="node1" class="node">
<title>Белград</title>
<polygon fill="#ffbbff" stroke="black" points="382.5,-468 311.5,-468 311.5,-445 382.5,-445 382.5,-468"/>
<text text-anchor="middle" x="347" y="-452.8" font-family="Droid Sans" font-size="14.00">Белград</text>
</g>
<!-- Ресник -->
<g id="node7" class="node">
<title>Ресник</title>
<polygon fill="#ffbbff" stroke="black" points="279,-408 225,-408 225,-389 279,-389 279,-408"/>
<text text-anchor="middle" x="252" y="-396" font-family="Droid Sans" font-size="10.00">Ресник</text>
</g>
<!-- Белград&#45;&#45;Ресник -->
<g id="edge5" class="edge">
<title>Белград&#45;&#45;Ресник</title>
<path fill="none" stroke="#7f7f7f" stroke-width="3" d="M325.69,-444.91C315.64,-439.75 303.56,-433.3 293,-427 282.99,-421.02 272.05,-413.64 263.98,-408.02"/>
</g>
<!-- Рушань -->
<g id="node8" class="node">
<title>Рушань</title>
<polygon fill="#ffbbff" stroke="black" points="159,-334 105,-334 105,-315 159,-315 159,-334"/>
<text text-anchor="middle" x="132" y="-322" font-family="Droid Sans" font-size="10.00">Рушань</text>
</g>
<!-- Белград&#45;&#45;Рушань -->
<g id="edge6" class="edge">
<title>Белград&#45;&#45;Рушань</title>
<path fill="none" stroke="#7f7f7f" stroke-width="3" d="M311.22,-452.89C256.01,-448.03 154.08,-435.49 132,-408 114.78,-386.56 123.39,-350.87 128.77,-334.37"/>
</g>
<!-- Сланцы -->
<g id="node9" class="node">
<title>Сланцы</title>
<polygon fill="#ffbbff" stroke="black" points="467,-408 413,-408 413,-389 467,-389 467,-408"/>
<text text-anchor="middle" x="440" y="-396" font-family="Droid Sans" font-size="10.00">Сланцы</text>
</g>
<!-- Белград&#45;&#45;Сланцы -->
<g id="edge7" class="edge">
<title>Белград&#45;&#45;Сланцы</title>
<path fill="none" stroke="#7f7f7f" stroke-width="3" d="M367.49,-444.82C377.16,-439.64 388.79,-433.2 399,-427 408.81,-421.04 419.59,-413.78 427.63,-408.22"/>
</g>
<!-- Сурчин -->
<g id="node10" class="node">
<title>Сурчин</title>
<polygon fill="#ffbbff" stroke="black" points="539,-408 485,-408 485,-389 539,-389 539,-408"/>
<text text-anchor="middle" x="512" y="-396" font-family="Droid Sans" font-size="10.00">Сурчин</text>
</g>
<!-- Белград&#45;&#45;Сурчин -->
<g id="edge8" class="edge">
<title>Белград&#45;&#45;Сурчин</title>
<path fill="none" stroke="#7f7f7f" stroke-width="3" d="M378.04,-444.97C409.5,-434.29 457.58,-417.97 486.77,-408.06"/>
</g>
<!-- Пиносава -->
<g id="node15" class="node">
<title>Пиносава</title>
<polygon fill="#ffbbff" stroke="black" points="339,-334 275,-334 275,-315 339,-315 339,-334"/>
<text text-anchor="middle" x="307" y="-322" font-family="Droid Sans" font-size="10.00">Пиносава</text>
</g>
<!-- Белград&#45;&#45;Пиносава -->
<g id="edge22" class="edge">
<title>Белград&#45;&#45;Пиносава</title>
<path fill="none" stroke="#7f7f7f" stroke-width="3" d="M343.73,-444.86C336,-419.76 316.76,-357.21 309.67,-334.19"/>
</g>
<!-- Железник -->
<g id="node21" class="node">
<title>Железник</title>
<polygon fill="#ffbbff" stroke="black" points="207,-408 141,-408 141,-389 207,-389 207,-408"/>
<text text-anchor="middle" x="174" y="-396" font-family="Droid Sans" font-size="10.00">Железник</text>
</g>
<!-- Белград&#45;&#45;Железник -->
<g id="edge24" class="edge">
<title>Белград&#45;&#45;Железник</title>
<path fill="none" stroke="#7f7f7f" stroke-width="3" d="M314.46,-444.97C281.47,-434.29 231.06,-417.97 200.45,-408.06"/>
</g>
<!-- Яково -->
<g id="node27" class="node">
<title>Яково</title>
<polygon fill="#ffbbff" stroke="black" points="456,-334 402,-334 402,-315 456,-315 456,-334"/>
<text text-anchor="middle" x="429" y="-322" font-family="Droid Sans" font-size="10.00">Яково</text>
</g>
<!-- Белград&#45;&#45;Яково -->
<g id="edge36" class="edge">
<title>Белград&#45;&#45;Яково</title>
<path fill="none" stroke="#7f7f7f" stroke-width="3" d="M353.71,-444.86C369.55,-419.76 409,-357.21 423.52,-334.19"/>
</g>
<!-- Умка -->
<g id="node31" class="node">
<title>Умка</title>
<polygon fill="#ffbbff" stroke="black" points="376,-371 322,-371 322,-352 376,-352 376,-371"/>
<text text-anchor="middle" x="349" y="-359" font-family="Droid Sans" font-size="10.00">Умка</text>
</g>
<!-- Белград&#45;&#45;Умка -->
<g id="edge38" class="edge">
<title>Белград&#45;&#45;Умка</title>
<path fill="none" stroke="#7f7f7f" stroke-width="3" d="M347.23,-444.83C347.63,-426.22 348.45,-388.19 348.81,-371.13"/>
</g>
<!-- Авала -->
<g id="node2" class="node">
<title>Авала</title>
<polygon fill="#ffbbff" stroke="black" points="355.86,-278 302.14,-278 283,-240 375,-240 355.86,-278"/>
<text text-anchor="middle" x="329" y="-256.5" font-family="Droid Sans" font-size="10.00">Авала</text>
</g>
<!-- Стара Пазова -->
<g id="node3" class="node">
<title>Стара Пазова</title>
<polygon fill="#ffbbff" stroke="black" points="554.5,-702 473.5,-702 473.5,-683 554.5,-683 554.5,-702"/>
<text text-anchor="middle" x="514" y="-690" font-family="Droid Sans" font-size="10.00">Стара Пазова</text>
</g>
<!-- Нова Пазова -->
<g id="node4" class="node">
<title>Нова Пазова</title>
<polygon fill="#ffbbff" stroke="black" points="551.5,-636 472.5,-636 472.5,-617 551.5,-617 551.5,-636"/>
<text text-anchor="middle" x="512" y="-624" font-family="Droid Sans" font-size="10.00">Нова Пазова</text>
</g>
<!-- Стара Пазова&#45;&#45;Нова Пазова -->
<g id="edge1" class="edge">
<title>Стара Пазова&#45;&#45;Нова Пазова</title>
<path fill="none" stroke="#7f7f7f" stroke-width="3" d="M513.73,-682.87C513.35,-670.72 512.66,-648.7 512.28,-636.41"/>
</g>
<!-- Стари Бановцы -->
<g id="node25" class="node">
<title>Стари Бановцы</title>
<polygon fill="#ffbbff" stroke="black" points="454,-636 364,-636 364,-617 454,-617 454,-636"/>
<text text-anchor="middle" x="409" y="-624" font-family="Droid Sans" font-size="10.00">Стари Бановцы</text>
</g>
<!-- Стара Пазова&#45;&#45;Стари Бановцы -->
<g id="edge66" class="edge">
<title>Стара Пазова&#45;&#45;Стари Бановцы</title>
<path fill="none" stroke="orange" stroke-width="1.5" d="M499.84,-682.87C479.8,-670.65 443.37,-648.45 423.27,-636.2"/>
<text text-anchor="middle" x="474.5" y="-657" font-family="Droid Sans" font-size="10.00" fill="orange">10</text>
</g>
<!-- Батайница -->
<g id="node5" class="node">
<title>Батайница</title>
<polygon fill="#ffbbff" stroke="black" points="470,-580 402,-580 402,-561 470,-561 470,-580"/>
<text text-anchor="middle" x="436" y="-568" font-family="Droid Sans" font-size="10.00">Батайница</text>
</g>
<!-- Нова Пазова&#45;&#45;Батайница -->
<g id="edge2" class="edge">
<title>Нова Пазова&#45;&#45;Батайница</title>
<path fill="none" stroke="#7f7f7f" stroke-width="3" d="M499.79,-616.82C485.69,-606.81 462.62,-590.42 448.43,-580.33"/>
</g>
<!-- Угриновцы -->
<g id="node26" class="node">
<title>Угриновцы</title>
<polygon fill="#ffbbff" stroke="black" points="547.5,-524 476.5,-524 476.5,-505 547.5,-505 547.5,-524"/>
<text text-anchor="middle" x="512" y="-512" font-family="Droid Sans" font-size="10.00">Угриновцы</text>
</g>
<!-- Нова Пазова&#45;&#45;Угриновцы -->
<g id="edge30" class="edge">
<title>Нова Пазова&#45;&#45;Угриновцы</title>
<path fill="none" stroke="#7f7f7f" stroke-width="3" d="M512,-616.87C512,-596.31 512,-544.61 512,-524.09"/>
</g>
<!-- Земун -->
<g id="node6" class="node">
<title>Земун</title>
<polygon fill="#ffbbff" stroke="black" points="339,-524 285,-524 285,-505 339,-505 339,-524"/>
<text text-anchor="middle" x="312" y="-512" font-family="Droid Sans" font-size="10.00">Земун</text>
</g>
<!-- Батайница&#45;&#45;Земун -->
<g id="edge3" class="edge">
<title>Батайница&#45;&#45;Земун</title>
<path fill="none" stroke="#7f7f7f" stroke-width="3" d="M416.35,-560.94C393.13,-550.83 354.73,-534.11 331.56,-524.02"/>
</g>
<!-- Батайница&#45;&#45;Угриновцы -->
<g id="edge31" class="edge">
<title>Батайница&#45;&#45;Угриновцы</title>
<path fill="none" stroke="#7f7f7f" stroke-width="3" d="M448.21,-560.82C462.31,-550.81 485.38,-534.42 499.57,-524.33"/>
</g>
<!-- Земун&#45;&#45;Белград -->
<g id="edge4" class="edge">
<title>Земун&#45;&#45;Белград</title>
<path fill="none" stroke="#7f7f7f" stroke-width="3" d="M317.47,-504.75C323.62,-494.91 333.62,-478.91 340.25,-468.3"/>
</g>
<!-- Ресник&#45;&#45;Рушань -->
<g id="edge12" class="edge">
<title>Ресник&#45;&#45;Рушань</title>
<path fill="none" stroke="#7f7f7f" stroke-width="3" d="M237.76,-388.96C214.67,-375.1 169.3,-347.88 146.22,-334.03"/>
</g>
<!-- Ресник&#45;&#45;Пиносава -->
<g id="edge15" class="edge">
<title>Ресник&#45;&#45;Пиносава</title>
<path fill="none" stroke="#7f7f7f" stroke-width="3" d="M258.53,-388.96C269.11,-375.1 289.9,-347.88 300.48,-334.03"/>
</g>
<!-- Колония -->
<g id="node16" class="node">
<title>Колония</title>
<polygon fill="#ffbbff" stroke="black" points="249.5,-334 190.5,-334 190.5,-315 249.5,-315 249.5,-334"/>
<text text-anchor="middle" x="220" y="-322" font-family="Droid Sans" font-size="10.00">Колония</text>
</g>
<!-- Ресник&#45;&#45;Колония -->
<g id="edge16" class="edge">
<title>Ресник&#45;&#45;Колония</title>
<path fill="none" stroke="#7f7f7f" stroke-width="3" d="M248.2,-388.96C242.04,-375.1 229.95,-347.88 223.79,-334.03"/>
</g>
<!-- Липовица -->
<g id="node13" class="node">
<title>Липовица</title>
<polygon fill="#ffbbff" stroke="black" points="66,-203 0,-203 0,-184 66,-184 66,-203"/>
<text text-anchor="middle" x="33" y="-191" font-family="Droid Sans" font-size="10.00">Липовица</text>
</g>
<!-- Рушань&#45;&#45;Липовица -->
<g id="edge13" class="edge">
<title>Рушань&#45;&#45;Липовица</title>
<path fill="none" stroke="#7f7f7f" stroke-width="3" d="M104.78,-321.95C75.81,-318.68 31.27,-308.64 10,-278 -6.47,-254.29 14.7,-219.17 26.32,-203.1"/>
</g>
<!-- Сурчин&#45;&#45;Яково -->
<g id="edge33" class="edge">
<title>Сурчин&#45;&#45;Яково</title>
<path fill="none" stroke="#7f7f7f" stroke-width="3" d="M502.15,-388.96C486.18,-375.1 454.8,-347.88 438.83,-334.03"/>
</g>
<!-- Вишница -->
<g id="node11" class="node">
<title>Вишница</title>
<polygon fill="#ffbbff" stroke="black" points="458.5,-524 395.5,-524 395.5,-505 458.5,-505 458.5,-524"/>
<text text-anchor="middle" x="427" y="-512" font-family="Droid Sans" font-size="10.00">Вишница</text>
</g>
<!-- Вишница&#45;&#45;Белград -->
<g id="edge11" class="edge">
<title>Вишница&#45;&#45;Белград</title>
<path fill="none" stroke="#7f7f7f" stroke-width="3" d="M414.85,-504.99C400.77,-495.14 377.57,-478.9 362.28,-468.2"/>
</g>
<!-- Велико село -->
<g id="node12" class="node">
<title>Велико село</title>
<polygon fill="#ffbbff" stroke="black" points="479,-466 401,-466 401,-447 479,-447 479,-466"/>
<text text-anchor="middle" x="440" y="-454" font-family="Droid Sans" font-size="10.00">Велико село</text>
</g>
<!-- Вишница&#45;&#45;Велико село -->
<g id="edge9" class="edge">
<title>Вишница&#45;&#45;Велико село</title>
<path fill="none" stroke="#7f7f7f" stroke-width="3" d="M429.03,-504.75C431.49,-494.17 435.59,-476.48 438.03,-466.01"/>
</g>
<!-- Велико село&#45;&#45;Сланцы -->
<g id="edge10" class="edge">
<title>Велико село&#45;&#45;Сланцы</title>
<path fill="none" stroke="#7f7f7f" stroke-width="3" d="M440,-446.75C440,-436.17 440,-418.48 440,-408.01"/>
</g>
<!-- Вреоцы -->
<g id="node14" class="node">
<title>Вреоцы</title>
<polygon fill="#ffbbff" stroke="black" points="60.5,-147 5.5,-147 5.5,-128 60.5,-128 60.5,-147"/>
<text text-anchor="middle" x="33" y="-135" font-family="Droid Sans" font-size="10.00">Вреоцы</text>
</g>
<!-- Липовица&#45;&#45;Вреоцы -->
<g id="edge14" class="edge">
<title>Липовица&#45;&#45;Вреоцы</title>
<path fill="none" stroke="#7f7f7f" stroke-width="3" d="M33,-183.58C33,-173.52 33,-157.25 33,-147.25"/>
</g>
<!-- Лазаревац -->
<g id="node48" class="node">
<title>Лазаревац</title>
<path fill="white" stroke="plum" d="M11.33,-63.5C11.33,-63.5 54.67,-63.5 54.67,-63.5 57.33,-63.5 60,-66.17 60,-68.83 60,-68.83 60,-74.17 60,-74.17 60,-76.83 57.33,-79.5 54.67,-79.5 54.67,-79.5 11.33,-79.5 11.33,-79.5 8.67,-79.5 6,-76.83 6,-74.17 6,-74.17 6,-68.83 6,-68.83 6,-66.17 8.67,-63.5 11.33,-63.5"/>
<text text-anchor="middle" x="33" y="-69.9" font-family="Droid Sans" font-size="7.00">Лазаревац</text>
</g>
<!-- Вреоцы&#45;&#45;Лазаревац -->
<g id="edge67" class="edge">
<title>Вреоцы&#45;&#45;Лазаревац</title>
<path fill="none" stroke="orange" stroke-width="1.5" d="M33,-127.87C33,-115.18 33,-91.7 33,-79.81"/>
<text text-anchor="middle" x="36.5" y="-102" font-family="Droid Sans" font-size="10.00" fill="orange">8</text>
</g>
<!-- Пиносава&#45;&#45;Авала -->
<g id="edge23" class="edge">
<title>Пиносава&#45;&#45;Авала</title>
<path fill="none" stroke="#7f7f7f" stroke-width="3" d="M309.97,-314.94C313.23,-305.52 318.56,-290.14 322.75,-278.04"/>
</g>
<!-- Бела река -->
<g id="node17" class="node">
<title>Бела река</title>
<polygon fill="#ffbbff" stroke="black" points="84.5,-268.5 19.5,-268.5 19.5,-249.5 84.5,-249.5 84.5,-268.5"/>
<text text-anchor="middle" x="52" y="-256.5" font-family="Droid Sans" font-size="10.00">Бела река</text>
</g>
<!-- Колония&#45;&#45;Бела река -->
<g id="edge17" class="edge">
<title>Колония&#45;&#45;Бела река</title>
<path fill="none" stroke="#7f7f7f" stroke-width="3" d="M194.74,-314.86C169.18,-306.01 128.62,-291.65 94,-278 86.62,-275.09 78.6,-271.71 71.56,-268.66"/>
</g>
<!-- Степашиновац -->
<g id="node18" class="node">
<title>Степашиновац</title>
<polygon fill="#ffbbff" stroke="black" points="264.5,-268.5 175.5,-268.5 175.5,-249.5 264.5,-249.5 264.5,-268.5"/>
<text text-anchor="middle" x="220" y="-256.5" font-family="Droid Sans" font-size="10.00">Степашиновац</text>
</g>
<!-- Колония&#45;&#45;Степашиновац -->
<g id="edge19" class="edge">
<title>Колония&#45;&#45;Степашиновац</title>
<path fill="none" stroke="#7f7f7f" stroke-width="3" d="M220,-314.94C220,-302.88 220,-281.03 220,-268.84"/>
</g>
<!-- Бела река&#45;&#45;Липовица -->
<g id="edge18" class="edge">
<title>Бела река&#45;&#45;Липовица</title>
<path fill="none" stroke="#7f7f7f" stroke-width="3" d="M49.44,-249.44C45.83,-237.38 39.29,-215.53 35.64,-203.34"/>
</g>
<!-- Шупля Стена -->
<g id="node19" class="node">
<title>Шупля Стена</title>
<polygon fill="#ffbbff" stroke="black" points="188,-203 108,-203 108,-184 188,-184 188,-203"/>
<text text-anchor="middle" x="148" y="-191" font-family="Droid Sans" font-size="10.00">Шупля Стена</text>
</g>
<!-- Степашиновац&#45;&#45;Шупля Стена -->
<g id="edge20" class="edge">
<title>Степашиновац&#45;&#45;Шупля Стена</title>
<path fill="none" stroke="#7f7f7f" stroke-width="3" d="M210.29,-249.44C196.62,-237.38 171.85,-215.53 158.02,-203.34"/>
</g>
<!-- IKEA -->
<g id="node20" class="node">
<title>IKEA</title>
<polygon fill="#ffbbff" stroke="black" points="157,-268.5 103,-268.5 103,-249.5 157,-249.5 157,-268.5"/>
<text text-anchor="middle" x="130" y="-256.5" font-family="Droid Sans" font-size="10.00">IKEA</text>
</g>
<!-- IKEA&#45;&#45;Шупля Стена -->
<g id="edge21" class="edge">
<title>IKEA&#45;&#45;Шупля Стена</title>
<path fill="none" stroke="#7f7f7f" stroke-width="3" d="M132.43,-249.44C135.84,-237.38 142.04,-215.53 145.5,-203.34"/>
</g>
<!-- Железник&#45;&#45;Рушань -->
<g id="edge25" class="edge">
<title>Железник&#45;&#45;Рушань</title>
<path fill="none" stroke="#7f7f7f" stroke-width="3" d="M169.02,-388.96C160.93,-375.1 145.06,-347.88 136.98,-334.03"/>
</g>
<!-- Сремска Митровица -->
<g id="node22" class="node">
<title>Сремска Митровица</title>
<polygon fill="#ffbbff" stroke="black" points="592,-834 476,-834 476,-815 592,-815 592,-834"/>
<text text-anchor="middle" x="534" y="-822" font-family="Droid Sans" font-size="10.00">Сремска Митровица</text>
</g>
<!-- Инджия -->
<g id="node23" class="node">
<title>Инджия</title>
<polygon fill="#ffbbff" stroke="black" points="507,-768 451,-768 451,-749 507,-749 507,-768"/>
<text text-anchor="middle" x="479" y="-756" font-family="Droid Sans" font-size="10.00">Инджия</text>
</g>
<!-- Сремска Митровица&#45;&#45;Инджия -->
<g id="edge26" class="edge">
<title>Сремска Митровица&#45;&#45;Инджия</title>
<path fill="none" stroke="#7f7f7f" stroke-width="3" d="M526.58,-814.87C516.14,-802.72 497.22,-780.7 486.65,-768.41"/>
</g>
<!-- Лачарак -->
<g id="node35" class="node">
<title>Лачарак</title>
<polygon fill="#ffbbff" stroke="black" points="646,-768 590,-768 590,-749 646,-749 646,-768"/>
<text text-anchor="middle" x="618" y="-756" font-family="Droid Sans" font-size="10.00">Лачарак</text>
</g>
<!-- Сремска Митровица&#45;&#45;Лачарак -->
<g id="edge46" class="edge">
<title>Сремска Митровица&#45;&#45;Лачарак</title>
<path fill="none" stroke="#7f7f7f" stroke-width="3" d="M545.33,-814.87C561.36,-802.65 590.5,-780.45 606.58,-768.2"/>
</g>
<!-- Инджия&#45;&#45;Стара Пазова -->
<g id="edge65" class="edge">
<title>Инджия&#45;&#45;Стара Пазова</title>
<path fill="none" stroke="orange" stroke-width="1.5" d="M483.72,-748.87C490.36,-736.72 502.41,-714.7 509.13,-702.41"/>
<text text-anchor="middle" x="505.5" y="-723" font-family="Droid Sans" font-size="10.00" fill="orange">10</text>
</g>
<!-- Нови Сланкамен -->
<g id="node24" class="node">
<title>Нови Сланкамен</title>
<polygon fill="#ffbbff" stroke="black" points="455,-702 357,-702 357,-683 455,-683 455,-702"/>
<text text-anchor="middle" x="406" y="-690" font-family="Droid Sans" font-size="10.00">Нови Сланкамен</text>
</g>
<!-- Инджия&#45;&#45;Нови Сланкамен -->
<g id="edge27" class="edge">
<title>Инджия&#45;&#45;Нови Сланкамен</title>
<path fill="none" stroke="#7f7f7f" stroke-width="3" d="M469.15,-748.87C455.3,-736.72 430.18,-714.7 416.16,-702.41"/>
</g>
<!-- Нови Сланкамен&#45;&#45;Стари Бановцы -->
<g id="edge28" class="edge">
<title>Нови Сланкамен&#45;&#45;Стари Бановцы</title>
<path fill="none" stroke="#7f7f7f" stroke-width="3" d="M406.4,-682.87C406.97,-670.72 408.01,-648.7 408.58,-636.41"/>
</g>
<!-- Стари Бановцы&#45;&#45;Батайница -->
<g id="edge29" class="edge">
<title>Стари Бановцы&#45;&#45;Батайница</title>
<path fill="none" stroke="#7f7f7f" stroke-width="3" d="M413.46,-616.58C418.49,-606.52 426.63,-590.25 431.62,-580.25"/>
</g>
<!-- Угриновцы&#45;&#45;Сурчин -->
<g id="edge32" class="edge">
<title>Угриновцы&#45;&#45;Сурчин</title>
<path fill="none" stroke="#7f7f7f" stroke-width="3" d="M512,-504.93C512,-483.8 512,-429.4 512,-408.17"/>
</g>
<!-- Обреновац -->
<g id="node30" class="node">
<title>Обреновац</title>
<polygon fill="#ffbbff" stroke="black" points="464.5,-268.5 393.5,-268.5 393.5,-249.5 464.5,-249.5 464.5,-268.5"/>
<text text-anchor="middle" x="429" y="-256.5" font-family="Droid Sans" font-size="10.00">Обреновац</text>
</g>
<!-- Яково&#45;&#45;Обреновац -->
<g id="edge37" class="edge">
<title>Яково&#45;&#45;Обреновац</title>
<path fill="none" stroke="#7f7f7f" stroke-width="3" d="M429,-314.94C429,-302.88 429,-281.03 429,-268.84"/>
</g>
<!-- Овча -->
<g id="node28" class="node">
<title>Овча</title>
<polygon fill="#ffbbff" stroke="black" points="304,-636 250,-636 250,-617 304,-617 304,-636"/>
<text text-anchor="middle" x="277" y="-624" font-family="Droid Sans" font-size="10.00">Овча</text>
</g>
<!-- Борча -->
<g id="node29" class="node">
<title>Борча</title>
<polygon fill="#ffbbff" stroke="black" points="343,-580 289,-580 289,-561 343,-561 343,-580"/>
<text text-anchor="middle" x="316" y="-568" font-family="Droid Sans" font-size="10.00">Борча</text>
</g>
<!-- Овча&#45;&#45;Борча -->
<g id="edge34" class="edge">
<title>Овча&#45;&#45;Борча</title>
<path fill="none" stroke="#7f7f7f" stroke-width="3" d="M283.44,-616.58C290.71,-606.52 302.46,-590.25 309.68,-580.25"/>
</g>
<!-- Себеш -->
<g id="node32" class="node">
<title>Себеш</title>
<polygon fill="#ffbbff" stroke="black" points="245,-524 191,-524 191,-505 245,-505 245,-524"/>
<text text-anchor="middle" x="218" y="-512" font-family="Droid Sans" font-size="10.00">Себеш</text>
</g>
<!-- Овча&#45;&#45;Себеш -->
<g id="edge40" class="edge">
<title>Овча&#45;&#45;Себеш</title>
<path fill="none" stroke="#7f7f7f" stroke-width="3" d="M272.37,-616.87C261.34,-596.31 233.62,-544.61 222.61,-524.09"/>
</g>
<!-- Борча&#45;&#45;Белград -->
<g id="edge35" class="edge">
<title>Борча&#45;&#45;Белград</title>
<path fill="none" stroke="#7f7f7f" stroke-width="3" d="M324.45,-561C332.29,-552.47 343.4,-538.55 348,-524 353.99,-505.07 351.48,-481.56 349.19,-468.16"/>
</g>
<!-- Борча&#45;&#45;Земун -->
<g id="edge42" class="edge">
<title>Борча&#45;&#45;Земун</title>
<path fill="none" stroke="#7f7f7f" stroke-width="3" d="M315.34,-560.58C314.59,-550.52 313.39,-534.25 312.65,-524.25"/>
</g>
<!-- Борча&#45;&#45;Себеш -->
<g id="edge41" class="edge">
<title>Борча&#45;&#45;Себеш</title>
<path fill="none" stroke="#7f7f7f" stroke-width="3" d="M303.78,-560.86C295.55,-555.19 284.34,-547.8 274,-542 262.27,-535.43 248.65,-528.95 237.77,-524.05"/>
</g>
<!-- Умка&#45;&#45;Обреновац -->
<g id="edge39" class="edge">
<title>Умка&#45;&#45;Обреновац</title>
<path fill="none" stroke="#7f7f7f" stroke-width="3" d="M355.82,-351.93C370.94,-332.94 407.1,-287.51 422.2,-268.55"/>
</g>
<!-- Панчево -->
<g id="node33" class="node">
<title>Панчево</title>
<polygon fill="#ffbbff" stroke="black" points="203.5,-636 144.5,-636 144.5,-617 203.5,-617 203.5,-636"/>
<text text-anchor="middle" x="174" y="-624" font-family="Droid Sans" font-size="10.00">Панчево</text>
</g>
<!-- Панчево&#45;&#45;Себеш -->
<g id="edge43" class="edge">
<title>Панчево&#45;&#45;Себеш</title>
<path fill="none" stroke="#7f7f7f" stroke-width="3" d="M165.75,-616.87C154.7,-604.23 137.63,-580.1 148,-561 157.68,-543.16 177.71,-531.23 193.87,-524.07"/>
</g>
<!-- Дубока бара -->
<g id="node34" class="node">
<title>Дубока бара</title>
<polygon fill="#ffbbff" stroke="black" points="233,-580 157,-580 157,-561 233,-561 233,-580"/>
<text text-anchor="middle" x="195" y="-568" font-family="Droid Sans" font-size="10.00">Дубока бара</text>
</g>
<!-- Панчево&#45;&#45;Дубока бара -->
<g id="edge44" class="edge">
<title>Панчево&#45;&#45;Дубока бара</title>
<path fill="none" stroke="#7f7f7f" stroke-width="3" d="M177.47,-616.58C181.38,-606.52 187.71,-590.25 191.6,-580.25"/>
</g>
<!-- Дубока бара&#45;&#45;Себеш -->
<g id="edge45" class="edge">
<title>Дубока бара&#45;&#45;Себеш</title>
<path fill="none" stroke="#7f7f7f" stroke-width="3" d="M198.8,-560.58C203.09,-550.52 210.01,-534.25 214.27,-524.25"/>
</g>
<!-- Мартинцы -->
<g id="node36" class="node">
<title>Мартинцы</title>
<polygon fill="#ffbbff" stroke="black" points="652,-702 584,-702 584,-683 652,-683 652,-702"/>
<text text-anchor="middle" x="618" y="-690" font-family="Droid Sans" font-size="10.00">Мартинцы</text>
</g>
<!-- Лачарак&#45;&#45;Мартинцы -->
<g id="edge47" class="edge">
<title>Лачарак&#45;&#45;Мартинцы</title>
<path fill="none" stroke="#7f7f7f" stroke-width="3" d="M618,-748.87C618,-736.72 618,-714.7 618,-702.41"/>
</g>
<!-- Босут -->
<g id="node38" class="node">
<title>Босут</title>
<polygon fill="#ffbbff" stroke="black" points="662,-580 608,-580 608,-561 662,-561 662,-580"/>
<text text-anchor="middle" x="635" y="-568" font-family="Droid Sans" font-size="10.00">Босут</text>
</g>
<!-- Лачарак&#45;&#45;Босут -->
<g id="edge50" class="edge">
<title>Лачарак&#45;&#45;Босут</title>
<path fill="none" stroke="#7f7f7f" stroke-width="3" d="M627.25,-748.64C637.32,-738.41 653.03,-720.6 661,-702 672.68,-674.73 668.77,-665.58 671,-636 671.63,-627.58 673.77,-624.98 671,-617 665.84,-602.16 653.6,-588.51 644.83,-580.11"/>
</g>
<!-- Кузмин -->
<g id="node37" class="node">
<title>Кузмин</title>
<polygon fill="#ffbbff" stroke="black" points="662,-636 608,-636 608,-617 662,-617 662,-636"/>
<text text-anchor="middle" x="635" y="-624" font-family="Droid Sans" font-size="10.00">Кузмин</text>
</g>
<!-- Мартинцы&#45;&#45;Кузмин -->
<g id="edge48" class="edge">
<title>Мартинцы&#45;&#45;Кузмин</title>
<path fill="none" stroke="#7f7f7f" stroke-width="3" d="M620.29,-682.87C623.52,-670.72 629.37,-648.7 632.63,-636.41"/>
</g>
<!-- Мартинцы&#45;&#45;Босут -->
<g id="edge51" class="edge">
<title>Мартинцы&#45;&#45;Босут</title>
<path fill="none" stroke="#7f7f7f" stroke-width="3" d="M612.42,-682.64C604.28,-668.54 590.93,-640.2 599,-617 604.16,-602.16 616.4,-588.51 625.17,-580.11"/>
</g>
<!-- Кузмин&#45;&#45;Босут -->
<g id="edge49" class="edge">
<title>Кузмин&#45;&#45;Босут</title>
<path fill="none" stroke="#7f7f7f" stroke-width="3" d="M635,-616.58C635,-606.52 635,-590.25 635,-580.25"/>
</g>
<!-- Босанска Рача -->
<g id="node39" class="node">
<title>Босанска Рача</title>
<polygon fill="#ffbbff" stroke="black" points="677,-524 593,-524 593,-505 677,-505 677,-524"/>
<text text-anchor="middle" x="635" y="-512" font-family="Droid Sans" font-size="10.00">Босанска Рача</text>
</g>
<!-- Босут&#45;&#45;Босанска Рача -->
<g id="edge52" class="edge">
<title>Босут&#45;&#45;Босанска Рача</title>
<path fill="none" stroke="#7f7f7f" stroke-width="3" d="M635,-560.58C635,-550.52 635,-534.25 635,-524.25"/>
</g>
<!-- Балатун -->
<g id="node40" class="node">
<title>Балатун</title>
<polygon fill="#ffbbff" stroke="black" points="643.5,-408 588.5,-408 588.5,-389 643.5,-389 643.5,-408"/>
<text text-anchor="middle" x="616" y="-396" font-family="Droid Sans" font-size="10.00">Балатун</text>
</g>
<!-- Босанска Рача&#45;&#45;Балатун -->
<g id="edge53" class="edge">
<title>Босанска Рача&#45;&#45;Балатун</title>
<path fill="none" stroke="#7f7f7f" stroke-width="3" d="M633.57,-504.93C630.05,-483.8 620.98,-429.4 617.44,-408.17"/>
</g>
<!-- Велино село -->
<g id="node42" class="node">
<title>Велино село</title>
<polygon fill="#ffbbff" stroke="black" points="723.5,-466 644.5,-466 644.5,-447 723.5,-447 723.5,-466"/>
<text text-anchor="middle" x="684" y="-454" font-family="Droid Sans" font-size="10.00">Велино село</text>
</g>
<!-- Босанска Рача&#45;&#45;Велино село -->
<g id="edge55" class="edge">
<title>Босанска Рача&#45;&#45;Велино село</title>
<path fill="none" stroke="#7f7f7f" stroke-width="3" d="M642.66,-504.75C651.92,-494.17 667.4,-476.48 676.56,-466.01"/>
</g>
<!-- Трняцы -->
<g id="node41" class="node">
<title>Трняцы</title>
<polygon fill="#ffbbff" stroke="black" points="681,-268.5 627,-268.5 627,-249.5 681,-249.5 681,-268.5"/>
<text text-anchor="middle" x="654" y="-256.5" font-family="Droid Sans" font-size="10.00">Трняцы</text>
</g>
<!-- Балатун&#45;&#45;Трняцы -->
<g id="edge54" class="edge">
<title>Балатун&#45;&#45;Трняцы</title>
<path fill="none" stroke="#7f7f7f" stroke-width="3" d="M617.6,-388.97C620.99,-371.38 629.46,-329.89 640,-296 642.95,-286.52 647.17,-275.97 650.2,-268.76"/>
</g>
<!-- Дворови -->
<g id="node45" class="node">
<title>Дворови</title>
<polygon fill="#ffbbff" stroke="black" points="684,-203 624,-203 624,-184 684,-184 684,-203"/>
<text text-anchor="middle" x="654" y="-191" font-family="Droid Sans" font-size="10.00">Дворови</text>
</g>
<!-- Трняцы&#45;&#45;Дворови -->
<g id="edge61" class="edge">
<title>Трняцы&#45;&#45;Дворови</title>
<path fill="none" stroke="#7f7f7f" stroke-width="3" d="M654,-249.44C654,-237.38 654,-215.53 654,-203.34"/>
</g>
<!-- Велино село&#45;&#45;Балатун -->
<g id="edge59" class="edge">
<title>Велино село&#45;&#45;Балатун</title>
<path fill="none" stroke="#7f7f7f" stroke-width="3" d="M673.67,-446.99C660.89,-436.47 639.25,-418.65 626.42,-408.09"/>
</g>
<!-- Бродац Дони -->
<g id="node43" class="node">
<title>Бродац Дони</title>
<polygon fill="#ffbbff" stroke="black" points="742,-408 662,-408 662,-389 742,-389 742,-408"/>
<text text-anchor="middle" x="702" y="-396" font-family="Droid Sans" font-size="10.00">Бродац Дони</text>
</g>
<!-- Велино село&#45;&#45;Бродац Дони -->
<g id="edge56" class="edge">
<title>Велино село&#45;&#45;Бродац Дони</title>
<path fill="none" stroke="#7f7f7f" stroke-width="3" d="M686.81,-446.75C690.21,-436.17 695.9,-418.48 699.27,-408.01"/>
</g>
<!-- Бродац Дони&#45;&#45;Трняцы -->
<g id="edge60" class="edge">
<title>Бродац Дони&#45;&#45;Трняцы</title>
<path fill="none" stroke="#7f7f7f" stroke-width="3" d="M697.58,-388.63C691.65,-376.51 681.06,-353.99 674,-334 665.84,-310.91 659.08,-282.78 655.92,-268.79"/>
</g>
<!-- Бродац Горни -->
<g id="node44" class="node">
<title>Бродац Горни</title>
<polygon fill="#ffbbff" stroke="black" points="765.5,-334 682.5,-334 682.5,-315 765.5,-315 765.5,-334"/>
<text text-anchor="middle" x="724" y="-322" font-family="Droid Sans" font-size="10.00">Бродац Горни</text>
</g>
<!-- Бродац Дони&#45;&#45;Бродац Горни -->
<g id="edge57" class="edge">
<title>Бродац Дони&#45;&#45;Бродац Горни</title>
<path fill="none" stroke="#7f7f7f" stroke-width="3" d="M704.61,-388.96C708.84,-375.1 717.16,-347.88 721.39,-334.03"/>
</g>
<!-- Бродац Горни&#45;&#45;Трняцы -->
<g id="edge58" class="edge">
<title>Бродац Горни&#45;&#45;Трняцы</title>
<path fill="none" stroke="#7f7f7f" stroke-width="3" d="M714.56,-314.94C701.27,-302.88 677.19,-281.03 663.74,-268.84"/>
</g>
<!-- Биелина -->
<g id="node46" class="node">
<title>Биелина</title>
<polygon fill="#ffbbff" stroke="black" points="683.5,-81 624.5,-81 624.5,-62 683.5,-62 683.5,-81"/>
<text text-anchor="middle" x="654" y="-69" font-family="Droid Sans" font-size="10.00">Биелина</text>
</g>
<!-- Дворови&#45;&#45;Биелина -->
<g id="edge62" class="edge">
<title>Дворови&#45;&#45;Биелина</title>
<path fill="none" stroke="#7f7f7f" stroke-width="3" d="M653.01,-183.79C652.02,-174.65 650.56,-159.83 650,-147 648.96,-123.19 651.48,-95.12 652.98,-81.21"/>
</g>
<!-- Станишичи -->
<g id="node47" class="node">
<title>Станишичи</title>
<polygon fill="#ffbbff" stroke="black" points="733,-147 659,-147 659,-128 733,-128 733,-147"/>
<text text-anchor="middle" x="696" y="-135" font-family="Droid Sans" font-size="10.00">Станишичи</text>
</g>
<!-- Дворови&#45;&#45;Станишичи -->
<g id="edge63" class="edge">
<title>Дворови&#45;&#45;Станишичи</title>
<path fill="none" stroke="#7f7f7f" stroke-width="3" d="M660.94,-183.58C668.76,-173.52 681.42,-157.25 689.19,-147.25"/>
</g>
<!-- Лозница -->
<g id="node52" class="node">
<title>Лозница</title>
<path fill="white" stroke="plum" d="M632.33,-0.5C632.33,-0.5 675.67,-0.5 675.67,-0.5 678.33,-0.5 681,-3.17 681,-5.83 681,-5.83 681,-11.17 681,-11.17 681,-13.83 678.33,-16.5 675.67,-16.5 675.67,-16.5 632.33,-16.5 632.33,-16.5 629.67,-16.5 627,-13.83 627,-11.17 627,-11.17 627,-5.83 627,-5.83 627,-3.17 629.67,-0.5 632.33,-0.5"/>
<text text-anchor="middle" x="654" y="-6.9" font-family="Droid Sans" font-size="7.00">Лозница</text>
</g>
<!-- Биелина&#45;&#45;Лозница -->
<g id="edge72" class="edge">
<title>Биелина&#45;&#45;Лозница</title>
<path fill="none" stroke="orangered" d="M654,-61.76C654,-49.64 654,-27.94 654,-16.7"/>
<text text-anchor="middle" x="659" y="-37.6" font-family="Droid Sans" font-size="8.00" fill="orangered">33</text>
</g>
<!-- Станишичи&#45;&#45;Биелина -->
<g id="edge64" class="edge">
<title>Станишичи&#45;&#45;Биелина</title>
<path fill="none" stroke="#7f7f7f" stroke-width="3" d="M690.34,-127.87C682.36,-115.72 667.91,-93.7 659.84,-81.41"/>
</g>
<!-- Нови&#45;Сад -->
<g id="node49" class="node">
<title>Нови&#45;Сад</title>
<path fill="white" stroke="plum" d="M393.33,-945.5C393.33,-945.5 436.67,-945.5 436.67,-945.5 439.33,-945.5 442,-948.17 442,-950.83 442,-950.83 442,-956.17 442,-956.17 442,-958.83 439.33,-961.5 436.67,-961.5 436.67,-961.5 393.33,-961.5 393.33,-961.5 390.67,-961.5 388,-958.83 388,-956.17 388,-956.17 388,-950.83 388,-950.83 388,-948.17 390.67,-945.5 393.33,-945.5"/>
<text text-anchor="middle" x="415" y="-951.9" font-family="Droid Sans" font-size="7.00">Нови&#45;Сад</text>
</g>
<!-- Петроварадин -->
<g id="node50" class="node">
<title>Петроварадин</title>
<path fill="white" stroke="plum" d="M387.33,-881.5C387.33,-881.5 442.67,-881.5 442.67,-881.5 445.33,-881.5 448,-884.17 448,-886.83 448,-886.83 448,-892.17 448,-892.17 448,-894.83 445.33,-897.5 442.67,-897.5 442.67,-897.5 387.33,-897.5 387.33,-897.5 384.67,-897.5 382,-894.83 382,-892.17 382,-892.17 382,-886.83 382,-886.83 382,-884.17 384.67,-881.5 387.33,-881.5"/>
<text text-anchor="middle" x="415" y="-887.9" font-family="Droid Sans" font-size="7.00">Петроварадин</text>
</g>
<!-- Нови&#45;Сад&#45;&#45;Петроварадин -->
<g id="edge68" class="edge">
<title>Нови&#45;Сад&#45;&#45;Петроварадин</title>
<path fill="none" stroke="orange" stroke-width="1.5" d="M415,-945.39C415,-933.43 415,-909.43 415,-897.53"/>
<text text-anchor="middle" x="418.5" y="-919" font-family="Droid Sans" font-size="10.00" fill="orange">4</text>
</g>
<!-- Чортановцы -->
<g id="node51" class="node">
<title>Чортановцы</title>
<path fill="white" stroke="plum" d="M390.33,-816.5C390.33,-816.5 439.67,-816.5 439.67,-816.5 442.33,-816.5 445,-819.17 445,-821.83 445,-821.83 445,-827.17 445,-827.17 445,-829.83 442.33,-832.5 439.67,-832.5 439.67,-832.5 390.33,-832.5 390.33,-832.5 387.67,-832.5 385,-829.83 385,-827.17 385,-827.17 385,-821.83 385,-821.83 385,-819.17 387.67,-816.5 390.33,-816.5"/>
<text text-anchor="middle" x="415" y="-822.9" font-family="Droid Sans" font-size="7.00">Чортановцы</text>
</g>
<!-- Петроварадин&#45;&#45;Чортановцы -->
<g id="edge69" class="edge">
<title>Петроварадин&#45;&#45;Чортановцы</title>
<path fill="none" stroke="orange" stroke-width="1.5" d="M415,-881.27C415,-869.12 415,-844.74 415,-832.64"/>
<text text-anchor="middle" x="421.5" y="-855" font-family="Droid Sans" font-size="10.00" fill="orange">12</text>
</g>
<!-- Чортановцы&#45;&#45;Инджия -->
<g id="edge70" class="edge">
<title>Чортановцы&#45;&#45;Инджия</title>
<path fill="none" stroke="orange" stroke-width="1.5" d="M422.34,-816.16C434.16,-804.34 457.37,-781.13 470.11,-768.39"/>
<text text-anchor="middle" x="457.5" y="-789" font-family="Droid Sans" font-size="10.00" fill="orange">18</text>
</g>
<!-- Чортановцы&#45;&#45;Нови Сланкамен -->
<g id="edge71" class="edge">
<title>Чортановцы&#45;&#45;Нови Сланкамен</title>
<path fill="none" stroke="orangered" d="M414.49,-816.14C412.94,-793.69 408.26,-726.15 406.6,-702.11"/>
<text text-anchor="middle" x="417" y="-756.6" font-family="Droid Sans" font-size="8.00" fill="orangered">25</text>
</g>
</g>
</svg>
