<?xml version="1.0" encoding="UTF-8" standalone="no"?>
<!DOCTYPE svg PUBLIC "-//W3C//DTD SVG 1.1//EN"
 "http://www.w3.org/Graphics/SVG/1.1/DTD/svg11.dtd">
<!-- Generated by graphviz version 2.43.0 (0)
 -->
<!-- Title: G Pages: 1 -->
<svg width="810pt" height="1086pt"
 viewBox="0.00 0.00 810.00 1086.00" xmlns="http://www.w3.org/2000/svg" xmlns:xlink="http://www.w3.org/1999/xlink">
<g id="graph0" class="graph" transform="scale(1 1) rotate(0) translate(4 1082)">
<title>G</title>
<polygon fill="white" stroke="transparent" points="-4,4 -4,-1082 806,-1082 806,4 -4,4"/>
<!-- Белград -->
<g id="node1" class="node">
<title>Белград</title>
<polygon fill="#ffbbff" stroke="black" points="253.5,-524 182.5,-524 182.5,-501 253.5,-501 253.5,-524"/>
<text text-anchor="middle" x="218" y="-508.8" font-family="Droid Sans" font-size="14.00">Белград</text>
</g>
<!-- Ресник -->
<g id="node7" class="node">
<title>Ресник</title>
<polygon fill="#ffbbff" stroke="black" points="300,-464 246,-464 246,-445 300,-445 300,-464"/>
<text text-anchor="middle" x="273" y="-452" font-family="Droid Sans" font-size="10.00">Ресник</text>
</g>
<!-- Белград&#45;&#45;Ресник -->
<g id="edge5" class="edge">
<title>Белград&#45;&#45;Ресник</title>
<path fill="none" stroke="#7f7f7f" stroke-width="3" d="M228.35,-500.97C238.8,-490.32 254.76,-474.07 264.5,-464.15"/>
</g>
<!-- Рушань -->
<g id="node8" class="node">
<title>Рушань</title>
<polygon fill="#ffbbff" stroke="black" points="383,-390 329,-390 329,-371 383,-371 383,-390"/>
<text text-anchor="middle" x="356" y="-378" font-family="Droid Sans" font-size="10.00">Рушань</text>
</g>
<!-- Белград&#45;&#45;Рушань -->
<g id="edge6" class="edge">
<title>Белград&#45;&#45;Рушань</title>
<path fill="none" stroke="#7f7f7f" stroke-width="3" d="M253.66,-506.93C299.77,-500.2 376.17,-486.01 393,-464 411.21,-440.18 381.65,-405.98 365.47,-390.15"/>
</g>
<!-- Сланцы -->
<g id="node9" class="node">
<title>Сланцы</title>
<polygon fill="#ffbbff" stroke="black" points="152,-464 98,-464 98,-445 152,-445 152,-464"/>
<text text-anchor="middle" x="125" y="-452" font-family="Droid Sans" font-size="10.00">Сланцы</text>
</g>
<!-- Белград&#45;&#45;Сланцы -->
<g id="edge7" class="edge">
<title>Белград&#45;&#45;Сланцы</title>
<path fill="none" stroke="#7f7f7f" stroke-width="3" d="M199.3,-500.81C190.13,-495.52 178.94,-489 169,-483 158.66,-476.77 147.09,-469.52 138.41,-464.04"/>
</g>
<!-- Сурчин -->
<g id="node10" class="node">
<title>Сурчин</title>
<polygon fill="#ffbbff" stroke="black" points="80,-464 26,-464 26,-445 80,-445 80,-464"/>
<text text-anchor="middle" x="53" y="-452" font-family="Droid Sans" font-size="10.00">Сурчин</text>
</g>
<!-- Белград&#45;&#45;Сурчин -->
<g id="edge8" class="edge">
<title>Белград&#45;&#45;Сурчин</title>
<path fill="none" stroke="#7f7f7f" stroke-width="3" d="M186.96,-500.97C155.5,-490.29 107.42,-473.97 78.23,-464.06"/>
</g>
<!-- Пиносава -->
<g id="node15" class="node">
<title>Пиносава</title>
<polygon fill="#ffbbff" stroke="black" points="474,-390 410,-390 410,-371 474,-371 474,-390"/>
<text text-anchor="middle" x="442" y="-378" font-family="Droid Sans" font-size="10.00">Пиносава</text>
</g>
<!-- Белград&#45;&#45;Пиносава -->
<g id="edge22" class="edge">
<title>Белград&#45;&#45;Пиносава</title>
<path fill="none" stroke="#7f7f7f" stroke-width="3" d="M253.65,-508.65C286.49,-505.21 336.17,-497.9 377,-483 392.9,-477.2 398.98,-476.84 410,-464 429.21,-441.62 437.6,-406.4 440.6,-390.19"/>
</g>
<!-- Железник -->
<g id="node21" class="node">
<title>Железник</title>
<polygon fill="#ffbbff" stroke="black" points="384,-464 318,-464 318,-445 384,-445 384,-464"/>
<text text-anchor="middle" x="351" y="-452" font-family="Droid Sans" font-size="10.00">Железник</text>
</g>
<!-- Белград&#45;&#45;Железник -->
<g id="edge24" class="edge">
<title>Белград&#45;&#45;Железник</title>
<path fill="none" stroke="#7f7f7f" stroke-width="3" d="M243.02,-500.97C268.3,-490.32 306.9,-474.07 330.46,-464.15"/>
</g>
<!-- Яково -->
<g id="node27" class="node">
<title>Яково</title>
<polygon fill="#ffbbff" stroke="black" points="135,-390 81,-390 81,-371 135,-371 135,-390"/>
<text text-anchor="middle" x="108" y="-378" font-family="Droid Sans" font-size="10.00">Яково</text>
</g>
<!-- Белград&#45;&#45;Яково -->
<g id="edge36" class="edge">
<title>Белград&#45;&#45;Яково</title>
<path fill="none" stroke="#7f7f7f" stroke-width="3" d="M209,-500.86C187.76,-475.76 134.83,-413.21 115.35,-390.19"/>
</g>
<!-- Умка -->
<g id="node31" class="node">
<title>Умка</title>
<polygon fill="#ffbbff" stroke="black" points="249,-427 195,-427 195,-408 249,-408 249,-427"/>
<text text-anchor="middle" x="222" y="-415" font-family="Droid Sans" font-size="10.00">Умка</text>
</g>
<!-- Белград&#45;&#45;Умка -->
<g id="edge38" class="edge">
<title>Белград&#45;&#45;Умка</title>
<path fill="none" stroke="#7f7f7f" stroke-width="3" d="M218.46,-500.83C219.26,-482.22 220.89,-444.19 221.63,-427.13"/>
</g>
<!-- Авала -->
<g id="node2" class="node">
<title>Авала</title>
<polygon fill="#ffbbff" stroke="black" points="468.86,-334 415.14,-334 396,-296 488,-296 468.86,-334"/>
<text text-anchor="middle" x="442" y="-312.5" font-family="Droid Sans" font-size="10.00">Авала</text>
</g>
<!-- Стара Пазова -->
<g id="node3" class="node">
<title>Стара Пазова</title>
<polygon fill="#ffbbff" stroke="black" points="202.5,-758 121.5,-758 121.5,-739 202.5,-739 202.5,-758"/>
<text text-anchor="middle" x="162" y="-746" font-family="Droid Sans" font-size="10.00">Стара Пазова</text>
</g>
<!-- Нова Пазова -->
<g id="node4" class="node">
<title>Нова Пазова</title>
<polygon fill="#ffbbff" stroke="black" points="132.5,-692 53.5,-692 53.5,-673 132.5,-673 132.5,-692"/>
<text text-anchor="middle" x="93" y="-680" font-family="Droid Sans" font-size="10.00">Нова Пазова</text>
</g>
<!-- Стара Пазова&#45;&#45;Нова Пазова -->
<g id="edge1" class="edge">
<title>Стара Пазова&#45;&#45;Нова Пазова</title>
<path fill="none" stroke="#7f7f7f" stroke-width="3" d="M152.69,-738.87C139.6,-726.72 115.85,-704.7 102.6,-692.41"/>
</g>
<!-- Стари Бановцы -->
<g id="node25" class="node">
<title>Стари Бановцы</title>
<polygon fill="#ffbbff" stroke="black" points="241,-692 151,-692 151,-673 241,-673 241,-692"/>
<text text-anchor="middle" x="196" y="-680" font-family="Droid Sans" font-size="10.00">Стари Бановцы</text>
</g>
<!-- Стара Пазова&#45;&#45;Стари Бановцы -->
<g id="edge77" class="edge">
<title>Стара Пазова&#45;&#45;Стари Бановцы</title>
<path fill="none" stroke="orange" stroke-width="1.5" d="M166.59,-738.87C173.04,-726.72 184.74,-704.7 191.27,-692.41"/>
<text text-anchor="middle" x="188.5" y="-713" font-family="Droid Sans" font-size="10.00" fill="orange">10</text>
</g>
<!-- Батайница -->
<g id="node5" class="node">
<title>Батайница</title>
<polygon fill="#ffbbff" stroke="black" points="186,-636 118,-636 118,-617 186,-617 186,-636"/>
<text text-anchor="middle" x="152" y="-624" font-family="Droid Sans" font-size="10.00">Батайница</text>
</g>
<!-- Нова Пазова&#45;&#45;Батайница -->
<g id="edge2" class="edge">
<title>Нова Пазова&#45;&#45;Батайница</title>
<path fill="none" stroke="#7f7f7f" stroke-width="3" d="M102.48,-672.82C113.42,-662.81 131.33,-646.42 142.35,-636.33"/>
</g>
<!-- Угриновцы -->
<g id="node26" class="node">
<title>Угриновцы</title>
<polygon fill="#ffbbff" stroke="black" points="99.5,-580 28.5,-580 28.5,-561 99.5,-561 99.5,-580"/>
<text text-anchor="middle" x="64" y="-568" font-family="Droid Sans" font-size="10.00">Угриновцы</text>
</g>
<!-- Нова Пазова&#45;&#45;Угриновцы -->
<g id="edge30" class="edge">
<title>Нова Пазова&#45;&#45;Угриновцы</title>
<path fill="none" stroke="#7f7f7f" stroke-width="3" d="M90.72,-672.87C85.3,-652.31 71.68,-600.61 66.27,-580.09"/>
</g>
<!-- Земун -->
<g id="node6" class="node">
<title>Земун</title>
<polygon fill="#ffbbff" stroke="black" points="291,-580 237,-580 237,-561 291,-561 291,-580"/>
<text text-anchor="middle" x="264" y="-568" font-family="Droid Sans" font-size="10.00">Земун</text>
</g>
<!-- Батайница&#45;&#45;Земун -->
<g id="edge3" class="edge">
<title>Батайница&#45;&#45;Земун</title>
<path fill="none" stroke="#7f7f7f" stroke-width="3" d="M169.99,-616.82C190.9,-606.75 225.17,-590.22 246.05,-580.15"/>
</g>
<!-- Батайница&#45;&#45;Угриновцы -->
<g id="edge31" class="edge">
<title>Батайница&#45;&#45;Угриновцы</title>
<path fill="none" stroke="#7f7f7f" stroke-width="3" d="M137.86,-616.82C121.44,-606.75 94.51,-590.22 78.1,-580.15"/>
</g>
<!-- Земун&#45;&#45;Белград -->
<g id="edge4" class="edge">
<title>Земун&#45;&#45;Белград</title>
<path fill="none" stroke="#7f7f7f" stroke-width="3" d="M256.81,-560.75C248.73,-550.91 235.59,-534.91 226.87,-524.3"/>
</g>
<!-- Ресник&#45;&#45;Рушань -->
<g id="edge12" class="edge">
<title>Ресник&#45;&#45;Рушань</title>
<path fill="none" stroke="#7f7f7f" stroke-width="3" d="M282.85,-444.96C298.82,-431.1 330.2,-403.88 346.17,-390.03"/>
</g>
<!-- Ресник&#45;&#45;Пиносава -->
<g id="edge15" class="edge">
<title>Ресник&#45;&#45;Пиносава</title>
<path fill="none" stroke="#7f7f7f" stroke-width="3" d="M293.05,-444.96C325.58,-431.1 389.47,-403.88 421.98,-390.03"/>
</g>
<!-- Колония -->
<g id="node16" class="node">
<title>Колония</title>
<polygon fill="#ffbbff" stroke="black" points="302.5,-390 243.5,-390 243.5,-371 302.5,-371 302.5,-390"/>
<text text-anchor="middle" x="273" y="-378" font-family="Droid Sans" font-size="10.00">Колония</text>
</g>
<!-- Ресник&#45;&#45;Колония -->
<g id="edge16" class="edge">
<title>Ресник&#45;&#45;Колония</title>
<path fill="none" stroke="#7f7f7f" stroke-width="3" d="M273,-444.96C273,-431.1 273,-403.88 273,-390.03"/>
</g>
<!-- Липовица -->
<g id="node13" class="node">
<title>Липовица</title>
<polygon fill="#ffbbff" stroke="black" points="379,-259 313,-259 313,-240 379,-240 379,-259"/>
<text text-anchor="middle" x="346" y="-247" font-family="Droid Sans" font-size="10.00">Липовица</text>
</g>
<!-- Рушань&#45;&#45;Липовица -->
<g id="edge13" class="edge">
<title>Рушань&#45;&#45;Липовица</title>
<path fill="none" stroke="#7f7f7f" stroke-width="3" d="M355.31,-370.63C353.48,-346.95 348.48,-282.45 346.67,-259.09"/>
</g>
<!-- Сурчин&#45;&#45;Яково -->
<g id="edge33" class="edge">
<title>Сурчин&#45;&#45;Яково</title>
<path fill="none" stroke="#7f7f7f" stroke-width="3" d="M59.53,-444.96C70.11,-431.1 90.9,-403.88 101.48,-390.03"/>
</g>
<!-- Вишница -->
<g id="node11" class="node">
<title>Вишница</title>
<polygon fill="#ffbbff" stroke="black" points="180.5,-580 117.5,-580 117.5,-561 180.5,-561 180.5,-580"/>
<text text-anchor="middle" x="149" y="-568" font-family="Droid Sans" font-size="10.00">Вишница</text>
</g>
<!-- Вишница&#45;&#45;Белград -->
<g id="edge11" class="edge">
<title>Вишница&#45;&#45;Белград</title>
<path fill="none" stroke="#7f7f7f" stroke-width="3" d="M159.48,-560.99C171.54,-551.2 191.39,-535.1 204.57,-524.4"/>
</g>
<!-- Велико село -->
<g id="node12" class="node">
<title>Велико село</title>
<polygon fill="#ffbbff" stroke="black" points="162,-522 84,-522 84,-503 162,-503 162,-522"/>
<text text-anchor="middle" x="123" y="-510" font-family="Droid Sans" font-size="10.00">Велико село</text>
</g>
<!-- Вишница&#45;&#45;Велико село -->
<g id="edge9" class="edge">
<title>Вишница&#45;&#45;Велико село</title>
<path fill="none" stroke="#7f7f7f" stroke-width="3" d="M144.94,-560.75C140.02,-550.17 131.81,-532.48 126.95,-522.01"/>
</g>
<!-- Велико село&#45;&#45;Сланцы -->
<g id="edge10" class="edge">
<title>Велико село&#45;&#45;Сланцы</title>
<path fill="none" stroke="#7f7f7f" stroke-width="3" d="M123.31,-502.75C123.69,-492.17 124.32,-474.48 124.7,-464.01"/>
</g>
<!-- Вреоцы -->
<g id="node14" class="node">
<title>Вреоцы</title>
<polygon fill="#ffbbff" stroke="black" points="373.5,-203 318.5,-203 318.5,-184 373.5,-184 373.5,-203"/>
<text text-anchor="middle" x="346" y="-191" font-family="Droid Sans" font-size="10.00">Вреоцы</text>
</g>
<!-- Липовица&#45;&#45;Вреоцы -->
<g id="edge14" class="edge">
<title>Липовица&#45;&#45;Вреоцы</title>
<path fill="none" stroke="#7f7f7f" stroke-width="3" d="M346,-239.58C346,-229.52 346,-213.25 346,-203.25"/>
</g>
<!-- Лазаревац -->
<g id="node57" class="node">
<title>Лазаревац</title>
<path fill="white" stroke="plum" d="M324.33,-119.5C324.33,-119.5 367.67,-119.5 367.67,-119.5 370.33,-119.5 373,-122.17 373,-124.83 373,-124.83 373,-130.17 373,-130.17 373,-132.83 370.33,-135.5 367.67,-135.5 367.67,-135.5 324.33,-135.5 324.33,-135.5 321.67,-135.5 319,-132.83 319,-130.17 319,-130.17 319,-124.83 319,-124.83 319,-122.17 321.67,-119.5 324.33,-119.5"/>
<text text-anchor="middle" x="346" y="-125.9" font-family="Droid Sans" font-size="7.00">Лазаревац</text>
</g>
<!-- Вреоцы&#45;&#45;Лазаревац -->
<g id="edge78" class="edge">
<title>Вреоцы&#45;&#45;Лазаревац</title>
<path fill="none" stroke="orange" stroke-width="1.5" d="M346,-183.87C346,-171.18 346,-147.7 346,-135.81"/>
<text text-anchor="middle" x="349.5" y="-158" font-family="Droid Sans" font-size="10.00" fill="orange">8</text>
</g>
<!-- Пиносава&#45;&#45;Авала -->
<g id="edge23" class="edge">
<title>Пиносава&#45;&#45;Авала</title>
<path fill="none" stroke="#7f7f7f" stroke-width="3" d="M442,-370.94C442,-361.52 442,-346.14 442,-334.04"/>
</g>
<!-- Бела река -->
<g id="node17" class="node">
<title>Бела река</title>
<polygon fill="#ffbbff" stroke="black" points="333.5,-324.5 268.5,-324.5 268.5,-305.5 333.5,-305.5 333.5,-324.5"/>
<text text-anchor="middle" x="301" y="-312.5" font-family="Droid Sans" font-size="10.00">Бела река</text>
</g>
<!-- Колония&#45;&#45;Бела река -->
<g id="edge17" class="edge">
<title>Колония&#45;&#45;Бела река</title>
<path fill="none" stroke="#7f7f7f" stroke-width="3" d="M276.78,-370.94C282.09,-358.88 291.73,-337.03 297.1,-324.84"/>
</g>
<!-- Степашиновац -->
<g id="node18" class="node">
<title>Степашиновац</title>
<polygon fill="#ffbbff" stroke="black" points="250.5,-324.5 161.5,-324.5 161.5,-305.5 250.5,-305.5 250.5,-324.5"/>
<text text-anchor="middle" x="206" y="-312.5" font-family="Droid Sans" font-size="10.00">Степашиновац</text>
</g>
<!-- Колония&#45;&#45;Степашиновац -->
<g id="edge19" class="edge">
<title>Колония&#45;&#45;Степашиновац</title>
<path fill="none" stroke="#7f7f7f" stroke-width="3" d="M263.96,-370.94C251.25,-358.88 228.19,-337.03 215.32,-324.84"/>
</g>
<!-- Бела река&#45;&#45;Липовица -->
<g id="edge18" class="edge">
<title>Бела река&#45;&#45;Липовица</title>
<path fill="none" stroke="#7f7f7f" stroke-width="3" d="M307.07,-305.44C315.61,-293.38 331.09,-271.53 339.74,-259.34"/>
</g>
<!-- Шупля Стена -->
<g id="node19" class="node">
<title>Шупля Стена</title>
<polygon fill="#ffbbff" stroke="black" points="118,-259 38,-259 38,-240 118,-240 118,-259"/>
<text text-anchor="middle" x="78" y="-247" font-family="Droid Sans" font-size="10.00">Шупля Стена</text>
</g>
<!-- Степашиновац&#45;&#45;Шупля Стена -->
<g id="edge20" class="edge">
<title>Степашиновац&#45;&#45;Шупля Стена</title>
<path fill="none" stroke="#7f7f7f" stroke-width="3" d="M188.74,-305.44C164.31,-293.32 119.9,-271.29 95.4,-259.13"/>
</g>
<!-- IKEA -->
<g id="node20" class="node">
<title>IKEA</title>
<polygon fill="#ffbbff" stroke="black" points="54,-324.5 0,-324.5 0,-305.5 54,-305.5 54,-324.5"/>
<text text-anchor="middle" x="27" y="-312.5" font-family="Droid Sans" font-size="10.00">IKEA</text>
</g>
<!-- IKEA&#45;&#45;Шупля Стена -->
<g id="edge21" class="edge">
<title>IKEA&#45;&#45;Шупля Стена</title>
<path fill="none" stroke="#7f7f7f" stroke-width="3" d="M33.88,-305.44C43.56,-293.38 61.11,-271.53 70.9,-259.34"/>
</g>
<!-- Железник&#45;&#45;Рушань -->
<g id="edge25" class="edge">
<title>Железник&#45;&#45;Рушань</title>
<path fill="none" stroke="#7f7f7f" stroke-width="3" d="M351.59,-444.96C352.56,-431.1 354.45,-403.88 355.41,-390.03"/>
</g>
<!-- Сремска Митровица -->
<g id="node22" class="node">
<title>Сремска Митровица</title>
<polygon fill="#ffbbff" stroke="black" points="603,-890 487,-890 487,-871 603,-871 603,-890"/>
<text text-anchor="middle" x="545" y="-878" font-family="Droid Sans" font-size="10.00">Сремска Митровица</text>
</g>
<!-- Инджия -->
<g id="node23" class="node">
<title>Инджия</title>
<polygon fill="#ffbbff" stroke="black" points="327,-824 271,-824 271,-805 327,-805 327,-824"/>
<text text-anchor="middle" x="299" y="-812" font-family="Droid Sans" font-size="10.00">Инджия</text>
</g>
<!-- Сремска Митровица&#45;&#45;Инджия -->
<g id="edge26" class="edge">
<title>Сремска Митровица&#45;&#45;Инджия</title>
<path fill="none" stroke="#7f7f7f" stroke-width="3" d="M512.08,-870.94C463.38,-858.26 372.96,-834.74 327.16,-822.83"/>
</g>
<!-- Лачарак -->
<g id="node35" class="node">
<title>Лачарак</title>
<polygon fill="#ffbbff" stroke="black" points="573,-824 517,-824 517,-805 573,-805 573,-824"/>
<text text-anchor="middle" x="545" y="-812" font-family="Droid Sans" font-size="10.00">Лачарак</text>
</g>
<!-- Сремска Митровица&#45;&#45;Лачарак -->
<g id="edge46" class="edge">
<title>Сремска Митровица&#45;&#45;Лачарак</title>
<path fill="none" stroke="#7f7f7f" stroke-width="3" d="M545,-870.87C545,-858.72 545,-836.7 545,-824.41"/>
</g>
<!-- Мачванска Митровица -->
<g id="node49" class="node">
<title>Мачванска Митровица</title>
<polygon fill="#ffbbff" stroke="black" points="778,-464 650,-464 650,-445 778,-445 778,-464"/>
<text text-anchor="middle" x="714" y="-452" font-family="Droid Sans" font-size="10.00">Мачванска Митровица</text>
</g>
<!-- Сремска Митровица&#45;&#45;Мачванска Митровица -->
<g id="edge66" class="edge">
<title>Сремска Митровица&#45;&#45;Мачванска Митровица</title>
<path fill="none" stroke="#7f7f7f" stroke-width="3" d="M603.34,-873.86C639.07,-866.81 678,-850.99 678,-815.5 678,-815.5 678,-815.5 678,-511.5 678,-492.31 693.14,-474.46 703.78,-464.28"/>
</g>
<!-- Инджия&#45;&#45;Стара Пазова -->
<g id="edge76" class="edge">
<title>Инджия&#45;&#45;Стара Пазова</title>
<path fill="none" stroke="orange" stroke-width="1.5" d="M280.52,-804.87C254.38,-792.65 206.85,-770.45 180.62,-758.2"/>
<text text-anchor="middle" x="245.5" y="-779" font-family="Droid Sans" font-size="10.00" fill="orange">10</text>
</g>
<!-- Нови Сланкамен -->
<g id="node24" class="node">
<title>Нови Сланкамен</title>
<polygon fill="#ffbbff" stroke="black" points="319,-758 221,-758 221,-739 319,-739 319,-758"/>
<text text-anchor="middle" x="270" y="-746" font-family="Droid Sans" font-size="10.00">Нови Сланкамен</text>
</g>
<!-- Инджия&#45;&#45;Нови Сланкамен -->
<g id="edge27" class="edge">
<title>Инджия&#45;&#45;Нови Сланкамен</title>
<path fill="none" stroke="#7f7f7f" stroke-width="3" d="M296.94,-804.92C294.92,-797.16 291.48,-785.52 287,-776 284.02,-769.67 279.77,-763.05 276.26,-758"/>
</g>
<!-- Нови Сланкамен&#45;&#45;Стари Бановцы -->
<g id="edge28" class="edge">
<title>Нови Сланкамен&#45;&#45;Стари Бановцы</title>
<path fill="none" stroke="#7f7f7f" stroke-width="3" d="M260.02,-738.87C245.98,-726.72 220.51,-704.7 206.3,-692.41"/>
</g>
<!-- Стари Бановцы&#45;&#45;Батайница -->
<g id="edge29" class="edge">
<title>Стари Бановцы&#45;&#45;Батайница</title>
<path fill="none" stroke="#7f7f7f" stroke-width="3" d="M188.73,-672.58C180.53,-662.52 167.28,-646.25 159.13,-636.25"/>
</g>
<!-- Угриновцы&#45;&#45;Сурчин -->
<g id="edge32" class="edge">
<title>Угриновцы&#45;&#45;Сурчин</title>
<path fill="none" stroke="#7f7f7f" stroke-width="3" d="M63.17,-560.93C61.13,-539.8 55.88,-485.4 53.84,-464.17"/>
</g>
<!-- Обреновац -->
<g id="node30" class="node">
<title>Обреновац</title>
<polygon fill="#ffbbff" stroke="black" points="143.5,-324.5 72.5,-324.5 72.5,-305.5 143.5,-305.5 143.5,-324.5"/>
<text text-anchor="middle" x="108" y="-312.5" font-family="Droid Sans" font-size="10.00">Обреновац</text>
</g>
<!-- Яково&#45;&#45;Обреновац -->
<g id="edge37" class="edge">
<title>Яково&#45;&#45;Обреновац</title>
<path fill="none" stroke="#7f7f7f" stroke-width="3" d="M108,-370.94C108,-358.88 108,-337.03 108,-324.84"/>
</g>
<!-- Овча -->
<g id="node28" class="node">
<title>Овча</title>
<polygon fill="#ffbbff" stroke="black" points="318,-692 264,-692 264,-673 318,-673 318,-692"/>
<text text-anchor="middle" x="291" y="-680" font-family="Droid Sans" font-size="10.00">Овча</text>
</g>
<!-- Борча -->
<g id="node29" class="node">
<title>Борча</title>
<polygon fill="#ffbbff" stroke="black" points="265,-636 211,-636 211,-617 265,-617 265,-636"/>
<text text-anchor="middle" x="238" y="-624" font-family="Droid Sans" font-size="10.00">Борча</text>
</g>
<!-- Овча&#45;&#45;Борча -->
<g id="edge34" class="edge">
<title>Овча&#45;&#45;Борча</title>
<path fill="none" stroke="#7f7f7f" stroke-width="3" d="M282.25,-672.58C272.37,-662.52 256.4,-646.25 246.59,-636.25"/>
</g>
<!-- Себеш -->
<g id="node32" class="node">
<title>Себеш</title>
<polygon fill="#ffbbff" stroke="black" points="369,-580 315,-580 315,-561 369,-561 369,-580"/>
<text text-anchor="middle" x="342" y="-568" font-family="Droid Sans" font-size="10.00">Себеш</text>
</g>
<!-- Овча&#45;&#45;Себеш -->
<g id="edge40" class="edge">
<title>Овча&#45;&#45;Себеш</title>
<path fill="none" stroke="#7f7f7f" stroke-width="3" d="M293.02,-672.87C296.16,-660.23 302.8,-636.1 312,-617 318.57,-603.36 328.65,-589 335.28,-580.14"/>
</g>
<!-- Борча&#45;&#45;Белград -->
<g id="edge35" class="edge">
<title>Борча&#45;&#45;Белград</title>
<path fill="none" stroke="#7f7f7f" stroke-width="3" d="M235.91,-616.81C233.75,-607.68 230.38,-592.88 228,-580 224.39,-560.48 221.17,-537.56 219.41,-524.36"/>
</g>
<!-- Борча&#45;&#45;Земун -->
<g id="edge42" class="edge">
<title>Борча&#45;&#45;Земун</title>
<path fill="none" stroke="#7f7f7f" stroke-width="3" d="M242.29,-616.58C247.14,-606.52 254.97,-590.25 259.79,-580.25"/>
</g>
<!-- Борча&#45;&#45;Себеш -->
<g id="edge41" class="edge">
<title>Борча&#45;&#45;Себеш</title>
<path fill="none" stroke="#7f7f7f" stroke-width="3" d="M250.48,-616.77C258.89,-611.07 270.36,-603.67 281,-598 293.64,-591.27 308.34,-584.84 320.15,-580"/>
</g>
<!-- Умка&#45;&#45;Обреновац -->
<g id="edge39" class="edge">
<title>Умка&#45;&#45;Обреновац</title>
<path fill="none" stroke="#7f7f7f" stroke-width="3" d="M212.28,-407.93C190.74,-388.94 139.21,-343.51 117.69,-324.55"/>
</g>
<!-- Панчево -->
<g id="node33" class="node">
<title>Панчево</title>
<polygon fill="#ffbbff" stroke="black" points="416.5,-692 357.5,-692 357.5,-673 416.5,-673 416.5,-692"/>
<text text-anchor="middle" x="387" y="-680" font-family="Droid Sans" font-size="10.00">Панчево</text>
</g>
<!-- Панчево&#45;&#45;Себеш -->
<g id="edge43" class="edge">
<title>Панчево&#45;&#45;Себеш</title>
<path fill="none" stroke="#7f7f7f" stroke-width="3" d="M393.58,-672.76C402.33,-659.97 415.64,-635.67 406,-617 397.06,-599.68 378.14,-587.51 363.18,-580.14"/>
</g>
<!-- Дубока бара -->
<g id="node34" class="node">
<title>Дубока бара</title>
<polygon fill="#ffbbff" stroke="black" points="397,-636 321,-636 321,-617 397,-617 397,-636"/>
<text text-anchor="middle" x="359" y="-624" font-family="Droid Sans" font-size="10.00">Дубока бара</text>
</g>
<!-- Панчево&#45;&#45;Дубока бара -->
<g id="edge44" class="edge">
<title>Панчево&#45;&#45;Дубока бара</title>
<path fill="none" stroke="#7f7f7f" stroke-width="3" d="M382.38,-672.58C377.16,-662.52 368.72,-646.25 363.54,-636.25"/>
</g>
<!-- Дубока бара&#45;&#45;Себеш -->
<g id="edge45" class="edge">
<title>Дубока бара&#45;&#45;Себеш</title>
<path fill="none" stroke="#7f7f7f" stroke-width="3" d="M356.19,-616.58C353.02,-606.52 347.9,-590.25 344.75,-580.25"/>
</g>
<!-- Мартинцы -->
<g id="node36" class="node">
<title>Мартинцы</title>
<polygon fill="#ffbbff" stroke="black" points="538,-758 470,-758 470,-739 538,-739 538,-758"/>
<text text-anchor="middle" x="504" y="-746" font-family="Droid Sans" font-size="10.00">Мартинцы</text>
</g>
<!-- Лачарак&#45;&#45;Мартинцы -->
<g id="edge47" class="edge">
<title>Лачарак&#45;&#45;Мартинцы</title>
<path fill="none" stroke="#7f7f7f" stroke-width="3" d="M539.47,-804.87C531.69,-792.72 517.58,-770.7 509.7,-758.41"/>
</g>
<!-- Босут -->
<g id="node38" class="node">
<title>Босут</title>
<polygon fill="#ffbbff" stroke="black" points="538,-636 484,-636 484,-617 538,-617 538,-636"/>
<text text-anchor="middle" x="511" y="-624" font-family="Droid Sans" font-size="10.00">Босут</text>
</g>
<!-- Лачарак&#45;&#45;Босут -->
<g id="edge50" class="edge">
<title>Лачарак&#45;&#45;Босут</title>
<path fill="none" stroke="#7f7f7f" stroke-width="3" d="M547.09,-804.95C552.15,-782.52 563.51,-720.47 547,-673 541.84,-658.16 529.6,-644.51 520.83,-636.11"/>
</g>
<!-- Кузмин -->
<g id="node37" class="node">
<title>Кузмин</title>
<polygon fill="#ffbbff" stroke="black" points="538,-692 484,-692 484,-673 538,-673 538,-692"/>
<text text-anchor="middle" x="511" y="-680" font-family="Droid Sans" font-size="10.00">Кузмин</text>
</g>
<!-- Мартинцы&#45;&#45;Кузмин -->
<g id="edge48" class="edge">
<title>Мартинцы&#45;&#45;Кузмин</title>
<path fill="none" stroke="#7f7f7f" stroke-width="3" d="M504.94,-738.87C506.27,-726.72 508.68,-704.7 510.03,-692.41"/>
</g>
<!-- Мартинцы&#45;&#45;Босут -->
<g id="edge51" class="edge">
<title>Мартинцы&#45;&#45;Босут</title>
<path fill="none" stroke="#7f7f7f" stroke-width="3" d="M496.42,-738.86C485.26,-725.05 466.61,-697.12 475,-673 480.16,-658.16 492.4,-644.51 501.17,-636.11"/>
</g>
<!-- Кузмин&#45;&#45;Босут -->
<g id="edge49" class="edge">
<title>Кузмин&#45;&#45;Босут</title>
<path fill="none" stroke="#7f7f7f" stroke-width="3" d="M511,-672.58C511,-662.52 511,-646.25 511,-636.25"/>
</g>
<!-- Босанска Рача -->
<g id="node39" class="node">
<title>Босанска Рача</title>
<polygon fill="#ffbbff" stroke="black" points="553,-580 469,-580 469,-561 553,-561 553,-580"/>
<text text-anchor="middle" x="511" y="-568" font-family="Droid Sans" font-size="10.00">Босанска Рача</text>
</g>
<!-- Босут&#45;&#45;Босанска Рача -->
<g id="edge52" class="edge">
<title>Босут&#45;&#45;Босанска Рача</title>
<path fill="none" stroke="#7f7f7f" stroke-width="3" d="M511,-616.58C511,-606.52 511,-590.25 511,-580.25"/>
</g>
<!-- Балатун -->
<g id="node40" class="node">
<title>Балатун</title>
<polygon fill="#ffbbff" stroke="black" points="533.5,-464 478.5,-464 478.5,-445 533.5,-445 533.5,-464"/>
<text text-anchor="middle" x="506" y="-452" font-family="Droid Sans" font-size="10.00">Балатун</text>
</g>
<!-- Босанска Рача&#45;&#45;Балатун -->
<g id="edge53" class="edge">
<title>Босанска Рача&#45;&#45;Балатун</title>
<path fill="none" stroke="#7f7f7f" stroke-width="3" d="M510.62,-560.93C509.7,-539.8 507.31,-485.4 506.38,-464.17"/>
</g>
<!-- Велино село -->
<g id="node42" class="node">
<title>Велино село</title>
<polygon fill="#ffbbff" stroke="black" points="613.5,-522 534.5,-522 534.5,-503 613.5,-503 613.5,-522"/>
<text text-anchor="middle" x="574" y="-510" font-family="Droid Sans" font-size="10.00">Велино село</text>
</g>
<!-- Босанска Рача&#45;&#45;Велино село -->
<g id="edge55" class="edge">
<title>Босанска Рача&#45;&#45;Велино село</title>
<path fill="none" stroke="#7f7f7f" stroke-width="3" d="M520.57,-560.99C532.41,-550.47 552.46,-532.65 564.34,-522.09"/>
</g>
<!-- Трняцы -->
<g id="node41" class="node">
<title>Трняцы</title>
<polygon fill="#ffbbff" stroke="black" points="584,-324.5 530,-324.5 530,-305.5 584,-305.5 584,-324.5"/>
<text text-anchor="middle" x="557" y="-312.5" font-family="Droid Sans" font-size="10.00">Трняцы</text>
</g>
<!-- Балатун&#45;&#45;Трняцы -->
<g id="edge54" class="edge">
<title>Балатун&#45;&#45;Трняцы</title>
<path fill="none" stroke="#7f7f7f" stroke-width="3" d="M509.19,-444.9C518.35,-420.21 544.65,-349.29 553.81,-324.6"/>
</g>
<!-- Дворови -->
<g id="node45" class="node">
<title>Дворови</title>
<polygon fill="#ffbbff" stroke="black" points="592,-259 532,-259 532,-240 592,-240 592,-259"/>
<text text-anchor="middle" x="562" y="-247" font-family="Droid Sans" font-size="10.00">Дворови</text>
</g>
<!-- Трняцы&#45;&#45;Дворови -->
<g id="edge61" class="edge">
<title>Трняцы&#45;&#45;Дворови</title>
<path fill="none" stroke="#7f7f7f" stroke-width="3" d="M557.67,-305.44C558.62,-293.38 560.34,-271.53 561.3,-259.34"/>
</g>
<!-- Велино село&#45;&#45;Балатун -->
<g id="edge59" class="edge">
<title>Велино село&#45;&#45;Балатун</title>
<path fill="none" stroke="#7f7f7f" stroke-width="3" d="M563.67,-502.99C550.89,-492.47 529.25,-474.65 516.42,-464.09"/>
</g>
<!-- Бродац Дони -->
<g id="node43" class="node">
<title>Бродац Дони</title>
<polygon fill="#ffbbff" stroke="black" points="632,-464 552,-464 552,-445 632,-445 632,-464"/>
<text text-anchor="middle" x="592" y="-452" font-family="Droid Sans" font-size="10.00">Бродац Дони</text>
</g>
<!-- Велино село&#45;&#45;Бродац Дони -->
<g id="edge56" class="edge">
<title>Велино село&#45;&#45;Бродац Дони</title>
<path fill="none" stroke="#7f7f7f" stroke-width="3" d="M576.81,-502.75C580.21,-492.17 585.9,-474.48 589.27,-464.01"/>
</g>
<!-- Бродац Дони&#45;&#45;Трняцы -->
<g id="edge60" class="edge">
<title>Бродац Дони&#45;&#45;Трняцы</title>
<path fill="none" stroke="#7f7f7f" stroke-width="3" d="M587.07,-444.78C580.57,-432.84 569.34,-410.52 564,-390 558.02,-367.02 557.02,-338.85 556.93,-324.82"/>
</g>
<!-- Бродац Горни -->
<g id="node44" class="node">
<title>Бродац Горни</title>
<polygon fill="#ffbbff" stroke="black" points="655.5,-390 572.5,-390 572.5,-371 655.5,-371 655.5,-390"/>
<text text-anchor="middle" x="614" y="-378" font-family="Droid Sans" font-size="10.00">Бродац Горни</text>
</g>
<!-- Бродац Дони&#45;&#45;Бродац Горни -->
<g id="edge57" class="edge">
<title>Бродац Дони&#45;&#45;Бродац Горни</title>
<path fill="none" stroke="#7f7f7f" stroke-width="3" d="M594.61,-444.96C598.84,-431.1 607.16,-403.88 611.39,-390.03"/>
</g>
<!-- Бродац Горни&#45;&#45;Трняцы -->
<g id="edge58" class="edge">
<title>Бродац Горни&#45;&#45;Трняцы</title>
<path fill="none" stroke="#7f7f7f" stroke-width="3" d="M606.31,-370.94C595.49,-358.88 575.88,-337.03 564.93,-324.84"/>
</g>
<!-- Биелина -->
<g id="node46" class="node">
<title>Биелина</title>
<polygon fill="#ffbbff" stroke="black" points="603.5,-81 544.5,-81 544.5,-62 603.5,-62 603.5,-81"/>
<text text-anchor="middle" x="574" y="-69" font-family="Droid Sans" font-size="10.00">Биелина</text>
</g>
<!-- Дворови&#45;&#45;Биелина -->
<g id="edge62" class="edge">
<title>Дворови&#45;&#45;Биелина</title>
<path fill="none" stroke="#7f7f7f" stroke-width="3" d="M562.61,-239.53C564.67,-209.27 571.36,-111.16 573.4,-81.24"/>
</g>
<!-- Станишичи -->
<g id="node47" class="node">
<title>Станишичи</title>
<polygon fill="#ffbbff" stroke="black" points="664,-203 590,-203 590,-184 664,-184 664,-203"/>
<text text-anchor="middle" x="627" y="-191" font-family="Droid Sans" font-size="10.00">Станишичи</text>
</g>
<!-- Дворови&#45;&#45;Станишичи -->
<g id="edge63" class="edge">
<title>Дворови&#45;&#45;Станишичи</title>
<path fill="none" stroke="#7f7f7f" stroke-width="3" d="M572.44,-239.82C584.5,-229.81 604.23,-213.42 616.37,-203.33"/>
</g>
<!-- Лозница -->
<g id="node60" class="node">
<title>Лозница</title>
<path fill="white" stroke="plum" d="M552.33,-0.5C552.33,-0.5 595.67,-0.5 595.67,-0.5 598.33,-0.5 601,-3.17 601,-5.83 601,-5.83 601,-11.17 601,-11.17 601,-13.83 598.33,-16.5 595.67,-16.5 595.67,-16.5 552.33,-16.5 552.33,-16.5 549.67,-16.5 547,-13.83 547,-11.17 547,-11.17 547,-5.83 547,-5.83 547,-3.17 549.67,-0.5 552.33,-0.5"/>
<text text-anchor="middle" x="574" y="-6.9" font-family="Droid Sans" font-size="7.00">Лозница</text>
</g>
<!-- Биелина&#45;&#45;Лозница -->
<g id="edge83" class="edge">
<title>Биелина&#45;&#45;Лозница</title>
<path fill="none" stroke="orangered" d="M574,-61.76C574,-49.64 574,-27.94 574,-16.7"/>
<text text-anchor="middle" x="579" y="-37.6" font-family="Droid Sans" font-size="8.00" fill="orangered">33</text>
</g>
<!-- Диелови -->
<g id="node48" class="node">
<title>Диелови</title>
<polygon fill="#ffbbff" stroke="black" points="657.5,-137 596.5,-137 596.5,-118 657.5,-118 657.5,-137"/>
<text text-anchor="middle" x="627" y="-125" font-family="Droid Sans" font-size="10.00">Диелови</text>
</g>
<!-- Станишичи&#45;&#45;Диелови -->
<g id="edge64" class="edge">
<title>Станишичи&#45;&#45;Диелови</title>
<path fill="none" stroke="#7f7f7f" stroke-width="3" d="M627,-183.87C627,-171.72 627,-149.7 627,-137.41"/>
</g>
<!-- Диелови&#45;&#45;Биелина -->
<g id="edge65" class="edge">
<title>Диелови&#45;&#45;Биелина</title>
<path fill="none" stroke="#7f7f7f" stroke-width="3" d="M618.25,-117.58C608.37,-107.52 592.4,-91.25 582.59,-81.25"/>
</g>
<!-- Равне -->
<g id="node50" class="node">
<title>Равне</title>
<polygon fill="#ffbbff" stroke="black" points="728,-390 674,-390 674,-371 728,-371 728,-390"/>
<text text-anchor="middle" x="701" y="-378" font-family="Droid Sans" font-size="10.00">Равне</text>
</g>
<!-- Мачванска Митровица&#45;&#45;Равне -->
<g id="edge67" class="edge">
<title>Мачванска Митровица&#45;&#45;Равне</title>
<path fill="none" stroke="#7f7f7f" stroke-width="3" d="M712.46,-444.96C709.96,-431.1 705.04,-403.88 702.54,-390.03"/>
</g>
<!-- Богатич -->
<g id="node51" class="node">
<title>Богатич</title>
<polygon fill="#ffbbff" stroke="black" points="802,-390 746,-390 746,-371 802,-371 802,-390"/>
<text text-anchor="middle" x="774" y="-378" font-family="Droid Sans" font-size="10.00">Богатич</text>
</g>
<!-- Мачванска Митровица&#45;&#45;Богатич -->
<g id="edge68" class="edge">
<title>Мачванска Митровица&#45;&#45;Богатич</title>
<path fill="none" stroke="#7f7f7f" stroke-width="3" d="M721.12,-444.96C732.67,-431.1 755.35,-403.88 766.89,-390.03"/>
</g>
<!-- Бадовинцы -->
<g id="node52" class="node">
<title>Бадовинцы</title>
<polygon fill="#ffbbff" stroke="black" points="737,-324.5 665,-324.5 665,-305.5 737,-305.5 737,-324.5"/>
<text text-anchor="middle" x="701" y="-312.5" font-family="Droid Sans" font-size="10.00">Бадовинцы</text>
</g>
<!-- Равне&#45;&#45;Бадовинцы -->
<g id="edge69" class="edge">
<title>Равне&#45;&#45;Бадовинцы</title>
<path fill="none" stroke="#7f7f7f" stroke-width="3" d="M701,-370.94C701,-358.88 701,-337.03 701,-324.84"/>
</g>
<!-- Богатич&#45;&#45;Бадовинцы -->
<g id="edge70" class="edge">
<title>Богатич&#45;&#45;Бадовинцы</title>
<path fill="none" stroke="#7f7f7f" stroke-width="3" d="M764.15,-370.94C750.3,-358.88 725.18,-337.03 711.16,-324.84"/>
</g>
<!-- Попово Поле -->
<g id="node53" class="node">
<title>Попово Поле</title>
<polygon fill="#ffbbff" stroke="black" points="733,-259 651,-259 651,-240 733,-240 733,-259"/>
<text text-anchor="middle" x="692" y="-247" font-family="Droid Sans" font-size="10.00">Попово Поле</text>
</g>
<!-- Бадовинцы&#45;&#45;Попово Поле -->
<g id="edge71" class="edge">
<title>Бадовинцы&#45;&#45;Попово Поле</title>
<path fill="none" stroke="#7f7f7f" stroke-width="3" d="M699.79,-305.44C698.08,-293.38 694.98,-271.53 693.25,-259.34"/>
</g>
<!-- Попово Поле&#45;&#45;Станишичи -->
<g id="edge72" class="edge">
<title>Попово Поле&#45;&#45;Станишичи</title>
<path fill="none" stroke="#7f7f7f" stroke-width="3" d="M681.56,-239.82C669.5,-229.81 649.77,-213.42 637.63,-203.33"/>
</g>
<!-- Попово Поле&#45;&#45;Диелови -->
<g id="edge73" class="edge">
<title>Попово Поле&#45;&#45;Диелови</title>
<path fill="none" stroke="#7f7f7f" stroke-width="3" d="M690.58,-239.73C688.26,-226.9 682.88,-202.55 673,-184 663.12,-165.44 646.4,-147.34 636.07,-137.09"/>
</g>
<!-- Нови&#45;Сад -->
<g id="node54" class="node">
<title>Нови&#45;Сад</title>
<polygon fill="#ffbbff" stroke="black" points="263.5,-1078 200.5,-1078 200.5,-1059 263.5,-1059 263.5,-1078"/>
<text text-anchor="middle" x="232" y="-1066" font-family="Droid Sans" font-size="10.00">Нови&#45;Сад</text>
</g>
<!-- Петроварадин -->
<g id="node55" class="node">
<title>Петроварадин</title>
<polygon fill="#ffbbff" stroke="black" points="314,-1012 226,-1012 226,-993 314,-993 314,-1012"/>
<text text-anchor="middle" x="270" y="-1000" font-family="Droid Sans" font-size="10.00">Петроварадин</text>
</g>
<!-- Нови&#45;Сад&#45;&#45;Петроварадин -->
<g id="edge74" class="edge">
<title>Нови&#45;Сад&#45;&#45;Петроварадин</title>
<path fill="none" stroke="#7f7f7f" stroke-width="3" d="M237.12,-1058.87C244.34,-1046.72 257.41,-1024.7 264.71,-1012.41"/>
</g>
<!-- Сремски Карловцы -->
<g id="node56" class="node">
<title>Сремски Карловцы</title>
<polygon fill="#ffbbff" stroke="black" points="325,-956 215,-956 215,-937 325,-937 325,-956"/>
<text text-anchor="middle" x="270" y="-944" font-family="Droid Sans" font-size="10.00">Сремски Карловцы</text>
</g>
<!-- Петроварадин&#45;&#45;Сремски Карловцы -->
<g id="edge75" class="edge">
<title>Петроварадин&#45;&#45;Сремски Карловцы</title>
<path fill="none" stroke="#7f7f7f" stroke-width="3" d="M270,-992.58C270,-982.52 270,-966.25 270,-956.25"/>
</g>
<!-- Чортановцы -->
<g id="node59" class="node">
<title>Чортановцы</title>
<path fill="white" stroke="plum" d="M245.33,-872.5C245.33,-872.5 294.67,-872.5 294.67,-872.5 297.33,-872.5 300,-875.17 300,-877.83 300,-877.83 300,-883.17 300,-883.17 300,-885.83 297.33,-888.5 294.67,-888.5 294.67,-888.5 245.33,-888.5 245.33,-888.5 242.67,-888.5 240,-885.83 240,-883.17 240,-883.17 240,-877.83 240,-877.83 240,-875.17 242.67,-872.5 245.33,-872.5"/>
<text text-anchor="middle" x="270" y="-878.9" font-family="Droid Sans" font-size="7.00">Чортановцы</text>
</g>
<!-- Сремски Карловцы&#45;&#45;Чортановцы -->
<g id="edge80" class="edge">
<title>Сремски Карловцы&#45;&#45;Чортановцы</title>
<path fill="none" stroke="orange" stroke-width="1.5" d="M270,-936.87C270,-924.18 270,-900.7 270,-888.81"/>
<text text-anchor="middle" x="276.5" y="-911" font-family="Droid Sans" font-size="10.00" fill="orange">11</text>
</g>
<!-- Беочин -->
<g id="node58" class="node">
<title>Беочин</title>
<path fill="white" stroke="plum" d="M287.33,-1060.5C287.33,-1060.5 330.67,-1060.5 330.67,-1060.5 333.33,-1060.5 336,-1063.17 336,-1065.83 336,-1065.83 336,-1071.17 336,-1071.17 336,-1073.83 333.33,-1076.5 330.67,-1076.5 330.67,-1076.5 287.33,-1076.5 287.33,-1076.5 284.67,-1076.5 282,-1073.83 282,-1071.17 282,-1071.17 282,-1065.83 282,-1065.83 282,-1063.17 284.67,-1060.5 287.33,-1060.5"/>
<text text-anchor="middle" x="309" y="-1066.9" font-family="Droid Sans" font-size="7.00">Беочин</text>
</g>
<!-- Беочин&#45;&#45;Петроварадин -->
<g id="edge79" class="edge">
<title>Беочин&#45;&#45;Петроварадин</title>
<path fill="none" stroke="orange" stroke-width="1.5" d="M304.53,-1060.16C297.32,-1048.34 283.18,-1025.13 275.42,-1012.39"/>
<text text-anchor="middle" x="298.5" y="-1033" font-family="Droid Sans" font-size="10.00" fill="orange">16</text>
</g>
<!-- Чортановцы&#45;&#45;Инджия -->
<g id="edge81" class="edge">
<title>Чортановцы&#45;&#45;Инджия</title>
<path fill="none" stroke="orange" stroke-width="1.5" d="M273.33,-872.16C278.68,-860.34 289.2,-837.13 294.97,-824.39"/>
<text text-anchor="middle" x="293.5" y="-845" font-family="Droid Sans" font-size="10.00" fill="orange">18</text>
</g>
<!-- Чортановцы&#45;&#45;Нови Сланкамен -->
<g id="edge82" class="edge">
<title>Чортановцы&#45;&#45;Нови Сланкамен</title>
<path fill="none" stroke="orangered" d="M266.94,-872.49C262.59,-862.13 254.85,-842.01 252,-824 248.67,-802.91 247.57,-796.36 254,-776 256.01,-769.65 259.82,-763.23 263.23,-758.3"/>
<text text-anchor="middle" x="257" y="-812.6" font-family="Droid Sans" font-size="8.00" fill="orangered">25</text>
</g>
</g>
</svg>
